  0
SECTION
  2
HEADER
  9
$ACADVER
  1
AC1015
  9
$ACADMAINTVER
 70
     6
  9
$DWGCODEPAGE
  3
ANSI_1252
  9
$INSBASE
 10
0.0
 20
0.0
 30
0.0
  9
$EXTMIN
 10
7864.276367
 20
511.787659
 30
0.0
  9
$EXTMAX
 10
9099.701172
 20
675.588806
 30
0.0
  9
$LIMMIN
 10
4494.850586
 20
807.264069
  9
$LIMMAX
 10
13594.551758
 20
1483.216888
  9
$ORTHOMODE
 70
     0
  9
$REGENMODE
 70
     1
  9
$FILLMODE
 70
     1
  9
$QTEXTMODE
 70
     0
  9
$MIRRTEXT
 70
     1
  9
$LTSCALE
 40
36.40026
  9
$ATTMODE
 70
     1
  9
$TEXTSIZE
 40
0.2
  9
$TRACEWID
 40
0.05
  9
$TEXTSTYLE
  7
STANDARD
  9
$CLAYER
  8
0
  9
$CELTYPE
  6
Continuous
  9
$CECOLOR
 62
   256
  9
$CELTSCALE
 40
1.0
  9
$DISPSILH
 70
     0
  9
$DIMSCALE
 40
1.0
  9
$DIMASZ
 40
0.18
  9
$DIMEXO
 40
0.0625
  9
$DIMDLI
 40
0.38
  9
$DIMRND
 40
0.0
  9
$DIMDLE
 40
0.0
  9
$DIMEXE
 40
0.18
  9
$DIMTP
 40
0.0
  9
$DIMTM
 40
0.0
  9
$DIMTXT
 40
0.18
  9
$DIMCEN
 40
0.09
  9
$DIMTSZ
 40
0.0
  9
$DIMTOL
 70
     0
  9
$DIMLIM
 70
     0
  9
$DIMTIH
 70
     1
  9
$DIMTOH
 70
     1
  9
$DIMSE1
 70
     0
  9
$DIMSE2
 70
     0
  9
$DIMTAD
 70
     0
  9
$DIMZIN
 70
     0
  9
$DIMBLK
  1

  9
$DIMASO
 70
     1
  9
$DIMSHO
 70
     1
  9
$DIMPOST
  1

  9
$DIMAPOST
  1

  9
$DIMALT
 70
     0
  9
$DIMALTD
 70
     2
  9
$DIMALTF
 40
25.4
  9
$DIMLFAC
 40
1.0
  9
$DIMTOFL
 70
     0
  9
$DIMTVP
 40
0.0
  9
$DIMTIX
 70
     0
  9
$DIMSOXD
 70
     0
  9
$DIMSAH
 70
     0
  9
$DIMBLK1
  1

  9
$DIMBLK2
  1

  9
$DIMSTYLE
  2
STANDARD
  9
$DIMCLRD
 70
     0
  9
$DIMCLRE
 70
     0
  9
$DIMCLRT
 70
     0
  9
$DIMTFAC
 40
1.0
  9
$DIMGAP
 40
0.09
  9
$DIMJUST
 70
     0
  9
$DIMSD1
 70
     0
  9
$DIMSD2
 70
     0
  9
$DIMTOLJ
 70
     1
  9
$DIMTZIN
 70
     0
  9
$DIMALTZ
 70
     0
  9
$DIMALTTZ
 70
     0
  9
$DIMUPT
 70
     0
  9
$DIMDEC
 70
     4
  9
$DIMTDEC
 70
     4
  9
$DIMALTU
 70
     2
  9
$DIMALTTD
 70
     2
  9
$DIMTXSTY
  7
STANDARD
  9
$DIMAUNIT
 70
     0
  9
$DIMADEC
 70
     0
  9
$DIMALTRND
 40
0.0
  9
$DIMAZIN
 70
     0
  9
$DIMDSEP
 70
     0
  9
$DIMATFIT
 70
     3
  9
$DIMFRAC
 70
     0
  9
$DIMLDRBLK
  1

  9
$DIMLUNIT
 70
     2
  9
$DIMLWD
 70
     0
  9
$DIMLWE
 70
     0
  9
$DIMTMOVE
 70
     0
  9
$LUNITS
 70
     2
  9
$LUPREC
 70
     4
  9
$SKETCHINC
 40
0.1
  9
$FILLETRAD
 40
0.0
  9
$AUNITS
 70
     0
  9
$AUPREC
 70
     0
  9
$MENU
  1
acad
  9
$ELEVATION
 40
0.0
  9
$PELEVATION
 40
0.0
  9
$THICKNESS
 40
0.0
  9
$LIMCHECK
 70
     0
  9
$CHAMFERA
 40
0.0
  9
$CHAMFERB
 40
0.0
  9
$CHAMFERC
 40
0.0
  9
$CHAMFERD
 40
0.0
  9
$SKPOLY
 70
     0
  9
$TDCREATE
 40
0.000000000
  9
$TDUCREATE
 40
0.000000000
  9
$TDUPDATE
 40
0.000000000
  9
$TDUUPDATE
 40
0.000000000
  9
$TDINDWG
 40
0.0000000000
  9
$TDUSRTIMER
 40
0.0000000000
  9
$USRTIMER
 70
     1
  9
$ANGBASE
 50
0.0
  9
$ANGDIR
 70
     0
  9
$PDMODE
 70
    35
  9
$PDSIZE
 40
29.120208
  9
$PLINEWID
 40
0.0
  9
$SPLFRAME
 70
     0
  9
$SPLINETYPE
 70
     6
  9
$SPLINESEGS
 70
     8
  9
$HANDSEED
  5
2D7
  9
$SURFTAB1
 70
     6
  9
$SURFTAB2
 70
     6
  9
$SURFTYPE
 70
     6
  9
$SURFU
 70
     6
  9
$SURFV
 70
     6
  9
$UCSBASE
  2

  9
$UCSNAME
  2

  9
$UCSORG
 10
0.0
 20
0.0
 30
0.0
  9
$UCSXDIR
 10
1.0
 20
0.0
 30
0.0
  9
$UCSYDIR
 10
0.0
 20
1.0
 30
0.0
  9
$UCSORTHOREF
  2

  9
$UCSORTHOVIEW
 70
     0
  9
$UCSORGTOP
 10
0.0
 20
0.0
 30
0.0
  9
$UCSORGBOTTOM
 10
0.0
 20
0.0
 30
0.0
  9
$UCSORGLEFT
 10
0.0
 20
0.0
 30
0.0
  9
$UCSORGRIGHT
 10
0.0
 20
0.0
 30
0.0
  9
$UCSORGFRONT
 10
0.0
 20
0.0
 30
0.0
  9
$UCSORGBACK
 10
0.0
 20
0.0
 30
0.0
  9
$PUCSBASE
  2

  9
$PUCSNAME
  2

  9
$PUCSORG
 10
0.0
 20
0.0
 30
0.0
  9
$PUCSXDIR
 10
1.0
 20
0.0
 30
0.0
  9
$PUCSYDIR
 10
0.0
 20
1.0
 30
0.0
  9
$PUCSORTHOREF
  2

  9
$PUCSORTHOVIEW
 70
     0
  9
$PUCSORGTOP
 10
0.0
 20
0.0
 30
0.0
  9
$PUCSORGBOTTOM
 10
0.0
 20
0.0
 30
0.0
  9
$PUCSORGLEFT
 10
0.0
 20
0.0
 30
0.0
  9
$PUCSORGRIGHT
 10
0.0
 20
0.0
 30
0.0
  9
$PUCSORGFRONT
 10
0.0
 20
0.0
 30
0.0
  9
$PUCSORGBACK
 10
0.0
 20
0.0
 30
0.0
  9
$USERI1
 70
     0
  9
$USERI2
 70
     0
  9
$USERI3
 70
     0
  9
$USERI4
 70
     0
  9
$USERI5
 70
     0
  9
$USERR1
 40
0.0
  9
$USERR2
 40
0.0
  9
$USERR3
 40
0.0
  9
$USERR4
 40
0.0
  9
$USERR5
 40
0.0
  9
$WORLDVIEW
 70
     1
  9
$SHADEDGE
 70
     3
  9
$SHADEDIF
 70
    70
  9
$TILEMODE
 70
     1
  9
$MAXACTVP
 70
    16
  9
$PINSBASE
 10
0.0
 20
0.0
 30
0.0
  9
$PLIMCHECK
 70
     0
  9
$PEXTMIN
 10
0.0
 20
0.0
 30
0.0
  9
$PEXTMAX
 10
0.0
 20
0.0
 30
0.0
  9
$PLIMMIN
 10
0.0
 20
0.0
  9
$PLIMMAX
 10
0.0
 20
0.0
  9
$UNITMODE
 70
     0
  9
$VISRETAIN
 70
     0
  9
$PLINEGEN
 70
     1
  9
$PSLTSCALE
 70
     0
  9
$TREEDEPTH
 70
  3020
  9
$CMLSTYLE
  2
STANDARD
  9
$CMLJUST
 70
     0
  9
$CMLSCALE
 40
1.0
  9
$PROXYGRAPHICS
 70
     0
  9
$MEASUREMENT
 70
     0
  9
$CELWEIGHT
370
     0
  9
$ENDCAPS
280
     0
  9
$JOINSTYLE
280
     0
  9
$LWDISPLAY
290
     0
  9
$INSUNITS
 70
     0
  9
$HYPERLINKBASE
  1

  9
$XEDIT
290
     1
  9
$CEPSNTYPE
380
     0
  9
$PSTYLEMODE
290
     1
  9
$FINGERPRINTGUID
  2

  9
$VERSIONGUID
  2

  9
$EXTNAMES
290
     1
  9
$PSVPSCALE
 40
0.0
  0
ENDSEC
  0
SECTION
  2
CLASSES
  0
CLASS
  1
LWPOLYLINE
  2
AcDbPolyline
  3
"AutoCAD"
 90
        0
280
     0
281
     1
  0
CLASS
  1
IMAGE
  2
AcDbRasterImage
  3
ISM
 90
      127
280
     0
281
     1
  0
CLASS
  1
OLE2FRAME
  2
AcDbOle2Frame
  3
""
 90
        0
280
     0
281
     1
  0
CLASS
  1
HATCH
  2
AcDbHatch
  3
"ACAD_SEDONA"
 90
        0
280
     0
281
     1
  0
CLASS
  1
DICTIONARYVAR
  2
AcDbDictionaryVar
  3
"AutoCAD"
 90
        0
280
     0
281
     0
  0
CLASS
  1
RASTERVARIABLES
  2
AcDbRasterVariables
  3
ISM
 90
        0
280
     0
281
     0
  0
CLASS
  1
IMAGEDEF
  2
AcDbRasterImageDef
  3
ISM
 90
        0
280
     0
281
     0
  0
CLASS
  1
IMAGEDEF_REACTOR
  2
AcDbRasterImageDefReactor
  3
ISM
 90
        1
280
     0
281
     0
  0
CLASS
  1
IDBUFFER
  2
AcDbIdBuffer
  3
"Acad"
 90
        0
280
     0
281
     0
  0
CLASS
  1
SPATIAL_FILTER
  2
AcDbSpatialFilter
  3
"Acad"
 90
        0
280
     0
281
     0
  0
CLASS
  1
XRECORD
  2
AcDbXrecord
  3
"<Built In>"
 90
        0
280
     0
281
     0
  0
CLASS
  1
SORTENTSTABLE
  2
AcDbSortentsTable
  3
"AutoCAD"
 90
        0
280
     0
281
     0
  0
CLASS
  1
LAYER_INDEX
  2
AcDbLayerIndex
  3
"Acad"
 90
        0
280
     0
281
     0
  0
CLASS
  1
SPATIAL_INDEX
  2
AcDbSpatialIndex
  3
"Acad"
 90
        0
280
     0
281
     0
  0
CLASS
  1
OBJECT_PTR
  2
CAseDLPNTableRecord
  3
"ASE-LPNTableRecord"
 90
        1
280
     0
281
     0
  0
CLASS
  1
LAYOUT
  2
AcDbLayout
  3
"AutoCAD 2000"
 90
        1
280
     0
281
     0
  0
CLASS
  1
PLOTSETTINGS
  2
AcDbPlotSettings
  3
"AutoCAD 2000"
 90
        1
280
     0
281
     0
  0
CLASS
  1
ACDBDICTIONARYWDFLT
  2
AcDbDictionaryWithDefault
  3
"AutoCAD 2000"
 90
        1
280
     0
281
     0
  0
CLASS
  1
ACDBPLACEHOLDER
  2
AcDbPlaceHolder
  3
"AutoCAD 2000"
 90
        1
280
     0
281
     0
  0
CLASS
  1
VBA_PROJECT
  2
AcDbVbaProject
  3
"acadvba"
 90
        1
280
     0
281
     0
  0
CLASS
  1
WIPEOUT
  2
AcDbWipeout
  3
WipeOut|AutoCAD Express Tool|expresstools@autodesk.com
 90
      127
280
     0
281
     1
  0
CLASS
  1
WIPEOUTVARIABLES
  2
AcDbWipeoutVariables
  3
WipeOut|AutoCAD Express Tool|expresstools@autodesk.com
 90
        0
280
     0
281
     0
  0
CLASS
  1
RTEXT
  2
RText
  3
RText|AutoCAD Express Tool|expresstools@autodesk.com
 90
        0
280
     0
281
     1
  0
CLASS
  1
ARCALIGNEDTEXT
  2
AcDbArcAlignedText
  3
ATEXT|AutoCAD Express Tool|expresstools@autodesk.com
 90
        0
280
     0
281
     1
  0
ENDSEC
  0
SECTION
  2
TABLES
  0
TABLE
  2
VPORT
  5
7
100
AcDbSymbolTable
 70
     1
  0
VPORT
  5
15
100
AcDbSymbolTableRecord
100
AcDbViewportTableRecord
  2
*ACTIVE
 70
     0
 10
0.0
 20
0.0
 11
1.0
 21
1.0
 12
0.0
 22
0.0
 13
0.0
 23
0.0
 14
0.0
 24
0.0
 15
0.0
 25
0.0
 16
0.0
 26
0.0
 36
1.0
 17
8507.411834
 27
598.613421
 37
1.0
 40
1172.27124
 41
2.041667
 42
50.0
 43
0.0
 44
0.0
 50
0.0
 51
0.0
 71
     0
 72
   100
 73
     1
 74
     1
 75
     0
 76
     0
 77
     0
 78
     0
281
     0
 65
     0
110
0.0
120
0.0
130
0.0
111
1.0
121
0.0
131
0.0
112
0.0
122
1.0
132
0.0
345
0
346
0
 79
     0
146
0.0
  0
ENDTAB
  0
TABLE
  2
LTYPE
  5
4
100
AcDbSymbolTable
 70
    13
  0
LTYPE
  5
11
100
AcDbSymbolTableRecord
100
AcDbLinetypeTableRecord
  2
ByBlock
 70
    64
  3

 72
    65
 73
     0
 40
0.0
  0
LTYPE
  5
12
100
AcDbSymbolTableRecord
100
AcDbLinetypeTableRecord
  2
ByLayer
 70
    64
  3

 72
    65
 73
     0
 40
0.0
  0
LTYPE
  5
13
100
AcDbSymbolTableRecord
100
AcDbLinetypeTableRecord
  2
Continuous
 70
    64
  3
Solid line
 72
    65
 73
     0
 40
0.0
  0
LTYPE
  5
25
100
AcDbSymbolTableRecord
100
AcDbLinetypeTableRecord
  2
BORDER
 70
    64
  3
BORDER
 72
    65
 73
     6
 40
0.637005
 49
0.182001
 74
     0
 49
-0.091001
 74
     0
 49
0.182001
 74
     0
 49
-0.091001
 74
     0
 49
0.0
 74
     0
 49
-0.091001
 74
     0
  0
LTYPE
  5
26
100
AcDbSymbolTableRecord
100
AcDbLinetypeTableRecord
  2
CENTER
 70
    64
  3
CENTER
 72
    65
 73
     4
 40
0.728006
 49
0.455003
 74
     0
 49
-0.091001
 74
     0
 49
0.091001
 74
     0
 49
-0.091001
 74
     0
  0
LTYPE
  5
27
100
AcDbSymbolTableRecord
100
AcDbLinetypeTableRecord
  2
DASHDOT
 70
    64
  3
DASHDOT
 72
    65
 73
     4
 40
0.364003
 49
0.182001
 74
     0
 49
-0.091001
 74
     0
 49
0.0
 74
     0
 49
-0.091001
 74
     0
  0
LTYPE
  5
28
100
AcDbSymbolTableRecord
100
AcDbLinetypeTableRecord
  2
DASHED
 70
    64
  3
DASHED
 72
    65
 73
     2
 40
0.273002
 49
0.182001
 74
     0
 49
-0.091001
 74
     0
  0
LTYPE
  5
29
100
AcDbSymbolTableRecord
100
AcDbLinetypeTableRecord
  2
DIVIDE
 70
    64
  3
DIVIDE
 72
    65
 73
     6
 40
0.455004
 49
0.182001
 74
     0
 49
-0.091001
 74
     0
 49
0.0
 74
     0
 49
-0.091001
 74
     0
 49
0.0
 74
     0
 49
-0.091001
 74
     0
  0
LTYPE
  5
2A
100
AcDbSymbolTableRecord
100
AcDbLinetypeTableRecord
  2
DOT
 70
    64
  3
DOT
 72
    65
 73
     2
 40
0.091001
 49
0.0
 74
     0
 49
-0.091001
 74
     0
  0
LTYPE
  5
2B
100
AcDbSymbolTableRecord
100
AcDbLinetypeTableRecord
  2
HIDDEN
 70
    64
  3
HIDDEN
 72
    65
 73
     2
 40
0.136501
 49
0.091001
 74
     0
 49
-0.0455
 74
     0
  0
LTYPE
  5
2C
100
AcDbSymbolTableRecord
100
AcDbLinetypeTableRecord
  2
PHANTOM
 70
    64
  3
PHANTOM
 72
    65
 73
     6
 40
0.910008
 49
0.455003
 74
     0
 49
-0.091001
 74
     0
 49
0.091001
 74
     0
 49
-0.091001
 74
     0
 49
0.091001
 74
     0
 49
-0.091001
 74
     0
  0
LTYPE
  5
2D
100
AcDbSymbolTableRecord
100
AcDbLinetypeTableRecord
  2
DOTDOT
 70
    64
  3
DOTDOT
 72
    65
 73
     5
 40
0.273003
 49
-0.091001
 74
     0
 49
0.0
 74
     0
 49
-0.091001
 74
     0
 49
0.0
 74
     0
 49
-0.091001
 74
     0
  0
LTYPE
  5
2E
100
AcDbSymbolTableRecord
100
AcDbLinetypeTableRecord
  2
$AUXILIARY
 70
     0
  3
$AUXILIARY
 72
    65
 73
     2
 40
0.1
 49
0.05
 74
     0
 49
-0.05
 74
     0
  0
ENDTAB
  0
TABLE
  2
LAYER
  5
2
100
AcDbSymbolTable
 70
     3
  0
LAYER
  5
14
100
AcDbSymbolTableRecord
100
AcDbLayerTableRecord
  2
0
 70
     0
 62
     7
  6
Continuous
290
     1
370
    -3
390
1F
1001
TCAD
1000
TCW_LAYER_ORDER
1002
{
1071
        0
1002
}
  0
LAYER
  5
2F
100
AcDbSymbolTableRecord
100
AcDbLayerTableRecord
  2
FOREGROUND
 70
     0
 62
     7
  6
Continuous
290
     1
370
    -3
390
1F
1001
TCAD
1000
TCW_LAYER_ORDER
1002
{
1071
        0
1002
}
  0
LAYER
  5
30
100
AcDbSymbolTableRecord
100
AcDbLayerTableRecord
  2
BACKGROUND
 70
     1
 62
  -249
  6
Continuous
290
     1
370
    -3
390
1F
1001
TCAD
1000
TCW_LAYER_ORDER
1002
{
1071
        0
1002
}
  0
ENDTAB
  0
TABLE
  2
STYLE
  5
3
100
AcDbSymbolTable
 70
     1
  0
STYLE
  5
17
100
AcDbSymbolTableRecord
100
AcDbTextStyleTableRecord
  2
STANDARD
 70
     0
 40
0.0
 41
1.0
 50
0.0
 71
     0
 42
0.0
  3
TXT.SHX
  4

  0
ENDTAB
  0
TABLE
  2
VIEW
  5
5
100
AcDbSymbolTable
 70
     1
  0
VIEW
  5
31
100
AcDbSymbolTableRecord
100
AcDbViewTableRecord
  2
View_0
 70
     0
 40
8.267716
 10
5.846457
 20
4.133858
 41
11.692913
 11
0.0
 21
0.0
 31
1.0
 12
0.0
 22
0.0
 32
0.0
 42
50.0
 43
0.0
 44
0.0
 50
0.0
 71
     0
281
     0
 72
     0
110
0.0
120
0.0
130
0.0
111
1.0
121
0.0
131
0.0
112
0.0
122
1.0
132
0.0
  0
ENDTAB
  0
TABLE
  2
UCS
  5
6
100
AcDbSymbolTable
 70
     0
  0
ENDTAB
  0
TABLE
  2
APPID
  5
8
100
AcDbSymbolTable
 70
     2
  0
APPID
  5
16
100
AcDbSymbolTableRecord
100
AcDbRegAppTableRecord
  2
ACAD
 70
     0
  0
APPID
  5
24
100
AcDbSymbolTableRecord
100
AcDbRegAppTableRecord
  2
TCAD
 70
     0
  0
ENDTAB
  0
TABLE
  2
DIMSTYLE
  5
9
100
AcDbSymbolTable
 70
     1
100
AcDbDimStyleTable
 71
     0
  0
DIMSTYLE
105
18
100
AcDbSymbolTableRecord
100
AcDbDimStyleTableRecord
  2
STANDARD
 70
     0
  3

  4

 40
1.0
 41
0.18
 42
0.0625
 43
0.38
 44
0.18
 45
0.0
 46
0.0
 47
0.0
 48
0.0
 71
     0
 72
     0
 73
     1
 74
     1
 75
     0
 76
     0
 77
     0
 78
     0
 79
     0
140
0.18
141
0.09
142
0.0
143
25.4
144
1.0
145
0.0
146
1.0
147
0.09
148
0.0
170
     0
171
     2
172
     0
173
     0
174
     0
175
     0
176
     0
177
     0
178
     0
179
     0
271
     4
272
     4
273
     2
274
     2
275
     0
276
     0
277
     2
278
    46
279
     0
280
     0
281
     0
282
     0
283
     1
284
     0
285
     0
286
     0
288
     0
340
17
341
0
342
0
343
0
344
0
371
    -2
372
    -2
  0
ENDTAB
  0
TABLE
  2
BLOCK_RECORD
  5
1
100
AcDbSymbolTable
 70
     0
  0
BLOCK_RECORD
  5
A
100
AcDbSymbolTableRecord
100
AcDbBlockTableRecord
  2
*MODEL_SPACE
340
20
  0
BLOCK_RECORD
  5
B
100
AcDbSymbolTableRecord
100
AcDbBlockTableRecord
  2
*PAPER_SPACE
340
21
  0
ENDTAB
  0
ENDSEC
  0
SECTION
  2
BLOCKS
  0
BLOCK
  5
D
100
AcDbEntity
  8
0
100
AcDbBlockBegin
  2
*MODEL_SPACE
 70
     0
 10
0.0
 20
0.0
 30
0.0
  3
*MODEL_SPACE
  1

  0
ENDBLK
  5
E
100
AcDbEntity
  8
0
100
AcDbBlockEnd
  0
BLOCK
  5
F
100
AcDbEntity
 67
     1
  8
0
100
AcDbBlockBegin
  2
*PAPER_SPACE
 70
     0
 10
0.0
 20
0.0
 30
0.0
  3
*PAPER_SPACE
  1

  0
ENDBLK
  5
10
100
AcDbEntity
 67
     1
  8
0
100
AcDbBlockEnd
  0
ENDSEC
  0
SECTION
  2
ENTITIES
  0
POLYLINE
  5
32
100
AcDbEntity
  8
0
  6
Continuous
100
AcDb2dPolyline
 66
     1
 10
0.0
 20
0.0
 30
0.0
  0
VERTEX
  5
33
100
AcDbEntity
  8
0
  6
Continuous
100
AcDbVertex
100
AcDb2dVertex
 10
9066.212758
 20
511.787656
 30
0.0
  0
VERTEX
  5
34
100
AcDbEntity
  8
0
  6
Continuous
100
AcDbVertex
100
AcDb2dVertex
 10
9066.212758
 20
516.155687
 30
0.0
  0
VERTEX
  5
35
100
AcDbEntity
  8
0
  6
Continuous
100
AcDbVertex
100
AcDb2dVertex
 10
9048.740633
 20
516.155687
 30
0.0
  0
VERTEX
  5
36
100
AcDbEntity
  8
0
  6
Continuous
100
AcDbVertex
100
AcDb2dVertex
 10
9046.92062
 20
517.611697
 30
0.0
  0
VERTEX
  5
37
100
AcDbEntity
  8
0
  6
Continuous
100
AcDbVertex
100
AcDb2dVertex
 10
9046.92062
 20
520.159715
 30
0.0
  0
VERTEX
  5
38
100
AcDbEntity
  8
0
  6
Continuous
100
AcDbVertex
100
AcDb2dVertex
 10
9053.83667
 20
528.167773
 30
0.0
  0
VERTEX
  5
39
100
AcDbEntity
  8
0
  6
Continuous
100
AcDbVertex
100
AcDb2dVertex
 10
9071.672797
 20
557.287981
 30
0.0
  0
VERTEX
  5
3A
100
AcDbEntity
  8
0
  6
Continuous
100
AcDbVertex
100
AcDb2dVertex
 10
9049.104636
 20
556.195973
 30
0.0
  0
VERTEX
  5
3B
100
AcDbEntity
  8
0
  6
Continuous
100
AcDbVertex
100
AcDb2dVertex
 10
9041.824584
 20
570.392074
 30
0.0
  0
VERTEX
  5
3C
100
AcDbEntity
  8
0
  6
Continuous
100
AcDbVertex
100
AcDb2dVertex
 10
9043.280594
 20
573.304095
 30
0.0
  0
VERTEX
  5
3D
100
AcDbEntity
  8
0
  6
Continuous
100
AcDbVertex
100
AcDb2dVertex
 10
9092.784948
 20
568.208059
 30
0.0
  0
VERTEX
  5
3E
100
AcDbEntity
  8
0
  6
Continuous
100
AcDbVertex
100
AcDb2dVertex
 10
9095.332966
 20
566.388046
 30
0.0
  0
VERTEX
  5
3F
100
AcDbEntity
  8
0
  6
Continuous
100
AcDbVertex
100
AcDb2dVertex
 10
9095.332966
 20
563.476025
 30
0.0
  0
VERTEX
  5
40
100
AcDbEntity
  8
0
  6
Continuous
100
AcDbVertex
100
AcDb2dVertex
 10
9066.576761
 20
525.255752
 30
0.0
  0
VERTEX
  5
41
100
AcDbEntity
  8
0
  6
Continuous
100
AcDbVertex
100
AcDb2dVertex
 10
9097.516982
 20
535.447825
 30
0.0
  0
VERTEX
  5
42
100
AcDbEntity
  8
0
  6
Continuous
100
AcDbVertex
100
AcDb2dVertex
 10
9099.700997
 20
533.627812
 30
0.0
  0
VERTEX
  5
43
100
AcDbEntity
  8
0
  6
Continuous
100
AcDbVertex
100
AcDb2dVertex
 10
9099.700997
 20
531.443796
 30
0.0
  0
VERTEX
  5
44
100
AcDbEntity
  8
0
  6
Continuous
100
AcDbVertex
100
AcDb2dVertex
 10
9094.968964
 20
515.791684
 30
0.0
  0
VERTEX
  5
45
100
AcDbEntity
  8
0
  6
Continuous
100
AcDbVertex
100
AcDb2dVertex
 10
9090.964935
 20
514.335674
 30
0.0
  0
VERTEX
  5
46
100
AcDbEntity
  8
0
  6
Continuous
100
AcDbVertex
100
AcDb2dVertex
 10
9078.588847
 20
515.427682
 30
0.0
  0
VERTEX
  5
47
100
AcDbEntity
  8
0
  6
Continuous
100
AcDbVertex
100
AcDb2dVertex
 10
9078.588847
 20
511.787656
 30
0.0
  0
SEQEND
  5
48
100
AcDbEntity
  8
0
  6
Continuous
  0
POLYLINE
  5
49
100
AcDbEntity
  8
0
  6
Continuous
100
AcDb2dPolyline
 66
     1
 10
0.0
 20
0.0
 30
0.0
  0
VERTEX
  5
4A
100
AcDbEntity
  8
0
  6
Continuous
100
AcDbVertex
100
AcDb2dVertex
 10
8972.300087
 20
511.787656
 30
0.0
  0
VERTEX
  5
4B
100
AcDbEntity
  8
0
  6
Continuous
100
AcDbVertex
100
AcDb2dVertex
 10
8972.300087
 20
516.883692
 30
0.0
  0
VERTEX
  5
4C
100
AcDbEntity
  8
0
  6
Continuous
100
AcDbVertex
100
AcDb2dVertex
 10
8969.388067
 20
517.9757
 30
0.0
  0
VERTEX
  5
4D
100
AcDbEntity
  8
0
  6
Continuous
100
AcDbVertex
100
AcDb2dVertex
 10
8968.660061
 20
521.615726
 30
0.0
  0
VERTEX
  5
4E
100
AcDbEntity
  8
0
  6
Continuous
100
AcDbVertex
100
AcDb2dVertex
 10
8970.480074
 20
546.731905
 30
0.0
  0
VERTEX
  5
4F
100
AcDbEntity
  8
0
  6
Continuous
100
AcDbVertex
100
AcDb2dVertex
 10
8942.815877
 20
574.396103
 30
0.0
  0
VERTEX
  5
50
100
AcDbEntity
  8
0
  6
Continuous
100
AcDbVertex
100
AcDb2dVertex
 10
8967.204051
 20
573.668098
 30
0.0
  0
VERTEX
  5
51
100
AcDbEntity
  8
0
  6
Continuous
100
AcDbVertex
100
AcDb2dVertex
 10
8977.760126
 20
555.467968
 30
0.0
  0
VERTEX
  5
52
100
AcDbEntity
  8
0
  6
Continuous
100
AcDbVertex
100
AcDb2dVertex
 10
8991.956228
 20
570.756077
 30
0.0
  0
VERTEX
  5
53
100
AcDbEntity
  8
0
  6
Continuous
100
AcDbVertex
100
AcDb2dVertex
 10
9009.428353
 20
571.120079
 30
0.0
  0
VERTEX
  5
54
100
AcDbEntity
  8
0
  6
Continuous
100
AcDbVertex
100
AcDb2dVertex
 10
9015.252394
 20
568.208059
 30
0.0
  0
VERTEX
  5
55
100
AcDbEntity
  8
0
  6
Continuous
100
AcDbVertex
100
AcDb2dVertex
 10
8985.768184
 20
546.367903
 30
0.0
  0
VERTEX
  5
56
100
AcDbEntity
  8
0
  6
Continuous
100
AcDbVertex
100
AcDb2dVertex
 10
8988.680204
 20
520.159715
 30
0.0
  0
VERTEX
  5
57
100
AcDbEntity
  8
0
  6
Continuous
100
AcDbVertex
100
AcDb2dVertex
 10
8986.860191
 20
517.247695
 30
0.0
  0
VERTEX
  5
58
100
AcDbEntity
  8
0
  6
Continuous
100
AcDbVertex
100
AcDb2dVertex
 10
8984.676176
 20
516.883692
 30
0.0
  0
VERTEX
  5
59
100
AcDbEntity
  8
0
  6
Continuous
100
AcDbVertex
100
AcDb2dVertex
 10
8984.676176
 20
511.787656
 30
0.0
  0
SEQEND
  5
5A
100
AcDbEntity
  8
0
  6
Continuous
  0
POLYLINE
  5
5B
100
AcDbEntity
  8
0
  6
Continuous
100
AcDb2dPolyline
 66
     1
 10
0.0
 20
0.0
 30
0.0
  0
VERTEX
  5
5C
100
AcDbEntity
  8
0
  6
Continuous
100
AcDbVertex
100
AcDb2dVertex
 10
8847.811198
 20
511.787656
 30
0.0
  0
VERTEX
  5
5D
100
AcDbEntity
  8
0
  6
Continuous
100
AcDbVertex
100
AcDb2dVertex
 10
8847.811198
 20
515.063679
 30
0.0
  0
VERTEX
  5
5E
100
AcDbEntity
  8
0
  6
Continuous
100
AcDbVertex
100
AcDb2dVertex
 10
8842.715162
 20
516.155687
 30
0.0
  0
VERTEX
  5
5F
100
AcDbEntity
  8
0
  6
Continuous
100
AcDbVertex
100
AcDb2dVertex
 10
8841.623154
 20
519.43171
 30
0.0
  0
VERTEX
  5
60
100
AcDbEntity
  8
0
  6
Continuous
100
AcDbVertex
100
AcDb2dVertex
 10
8868.195344
 20
547.823913
 30
0.0
  0
VERTEX
  5
61
100
AcDbEntity
  8
0
  6
Continuous
100
AcDbVertex
100
AcDb2dVertex
 10
8839.803141
 20
573.304095
 30
0.0
  0
VERTEX
  5
62
100
AcDbEntity
  8
0
  6
Continuous
100
AcDbVertex
100
AcDb2dVertex
 10
8843.80717
 20
576.216116
 30
0.0
  0
VERTEX
  5
63
100
AcDbEntity
  8
0
  6
Continuous
100
AcDbVertex
100
AcDb2dVertex
 10
8862.371302
 20
571.848085
 30
0.0
  0
VERTEX
  5
64
100
AcDbEntity
  8
0
  6
Continuous
100
AcDbVertex
100
AcDb2dVertex
 10
8872.563375
 20
559.835999
 30
0.0
  0
VERTEX
  5
65
100
AcDbEntity
  8
0
  6
Continuous
100
AcDbVertex
100
AcDb2dVertex
 10
8881.299437
 20
576.216116
 30
0.0
  0
VERTEX
  5
66
100
AcDbEntity
  8
0
  6
Continuous
100
AcDbVertex
100
AcDb2dVertex
 10
8903.867599
 20
582.040157
 30
0.0
  0
VERTEX
  5
67
100
AcDbEntity
  8
0
  6
Continuous
100
AcDbVertex
100
AcDb2dVertex
 10
8906.415617
 20
579.856142
 30
0.0
  0
VERTEX
  5
68
100
AcDbEntity
  8
0
  6
Continuous
100
AcDbVertex
100
AcDb2dVertex
 10
8907.507625
 20
576.216116
 30
0.0
  0
VERTEX
  5
69
100
AcDbEntity
  8
0
  6
Continuous
100
AcDbVertex
100
AcDb2dVertex
 10
8881.66344
 20
548.551918
 30
0.0
  0
VERTEX
  5
6A
100
AcDbEntity
  8
0
  6
Continuous
100
AcDbVertex
100
AcDb2dVertex
 10
8906.779619
 20
531.443796
 30
0.0
  0
VERTEX
  5
6B
100
AcDbEntity
  8
0
  6
Continuous
100
AcDbVertex
100
AcDb2dVertex
 10
8915.151679
 20
526.34776
 30
0.0
  0
VERTEX
  5
6C
100
AcDbEntity
  8
0
  6
Continuous
100
AcDbVertex
100
AcDb2dVertex
 10
8917.335695
 20
523.071736
 30
0.0
  0
VERTEX
  5
6D
100
AcDbEntity
  8
0
  6
Continuous
100
AcDbVertex
100
AcDb2dVertex
 10
8914.787677
 20
519.067708
 30
0.0
  0
VERTEX
  5
6E
100
AcDbEntity
  8
0
  6
Continuous
100
AcDbVertex
100
AcDb2dVertex
 10
8897.315552
 20
519.43171
 30
0.0
  0
VERTEX
  5
6F
100
AcDbEntity
  8
0
  6
Continuous
100
AcDbVertex
100
AcDb2dVertex
 10
8875.839398
 20
537.995843
 30
0.0
  0
VERTEX
  5
70
100
AcDbEntity
  8
0
  6
Continuous
100
AcDbVertex
100
AcDb2dVertex
 10
8862.371302
 20
515.427682
 30
0.0
  0
VERTEX
  5
71
100
AcDbEntity
  8
0
  6
Continuous
100
AcDbVertex
100
AcDb2dVertex
 10
8860.187287
 20
515.063679
 30
0.0
  0
VERTEX
  5
72
100
AcDbEntity
  8
0
  6
Continuous
100
AcDbVertex
100
AcDb2dVertex
 10
8860.187287
 20
511.787656
 30
0.0
  0
SEQEND
  5
73
100
AcDbEntity
  8
0
  6
Continuous
  0
POLYLINE
  5
74
100
AcDbEntity
  8
0
  6
Continuous
100
AcDb2dPolyline
 66
     1
 10
0.0
 20
0.0
 30
0.0
  0
VERTEX
  5
75
100
AcDbEntity
  8
0
  6
Continuous
100
AcDbVertex
100
AcDb2dVertex
 10
8787.022764
 20
511.787656
 30
0.0
  0
VERTEX
  5
76
100
AcDbEntity
  8
0
  6
Continuous
100
AcDbVertex
100
AcDb2dVertex
 10
8787.022764
 20
515.063679
 30
0.0
  0
VERTEX
  5
77
100
AcDbEntity
  8
0
  6
Continuous
100
AcDbVertex
100
AcDb2dVertex
 10
8781.926728
 20
516.155687
 30
0.0
  0
VERTEX
  5
78
100
AcDbEntity
  8
0
  6
Continuous
100
AcDbVertex
100
AcDb2dVertex
 10
8776.102686
 20
536.17583
 30
0.0
  0
VERTEX
  5
79
100
AcDbEntity
  8
0
  6
Continuous
100
AcDbVertex
100
AcDb2dVertex
 10
8760.814577
 20
513.607669
 30
0.0
  0
VERTEX
  5
7A
100
AcDbEntity
  8
0
  6
Continuous
100
AcDbVertex
100
AcDb2dVertex
 10
8746.254473
 20
519.43171
 30
0.0
  0
VERTEX
  5
7B
100
AcDbEntity
  8
0
  6
Continuous
100
AcDbVertex
100
AcDb2dVertex
 10
8732.058371
 20
567.116051
 30
0.0
  0
VERTEX
  5
7C
100
AcDbEntity
  8
0
  6
Continuous
100
AcDbVertex
100
AcDb2dVertex
 10
8733.150379
 20
569.300066
 30
0.0
  0
VERTEX
  5
7D
100
AcDbEntity
  8
0
  6
Continuous
100
AcDbVertex
100
AcDb2dVertex
 10
8735.698397
 20
569.664069
 30
0.0
  0
VERTEX
  5
7E
100
AcDbEntity
  8
0
  6
Continuous
100
AcDbVertex
100
AcDb2dVertex
 10
8753.534525
 20
564.20403
 30
0.0
  0
VERTEX
  5
7F
100
AcDbEntity
  8
0
  6
Continuous
100
AcDbVertex
100
AcDb2dVertex
 10
8752.442517
 20
533.263809
 30
0.0
  0
VERTEX
  5
80
100
AcDbEntity
  8
0
  6
Continuous
100
AcDbVertex
100
AcDb2dVertex
 10
8769.914642
 20
563.112022
 30
0.0
  0
VERTEX
  5
81
100
AcDbEntity
  8
0
  6
Continuous
100
AcDbVertex
100
AcDb2dVertex
 10
8771.370652
 20
563.476025
 30
0.0
  0
VERTEX
  5
82
100
AcDbEntity
  8
0
  6
Continuous
100
AcDbVertex
100
AcDb2dVertex
 10
8775.374681
 20
558.379988
 30
0.0
  0
VERTEX
  5
83
100
AcDbEntity
  8
0
  6
Continuous
100
AcDbVertex
100
AcDb2dVertex
 10
8787.386767
 20
537.267838
 30
0.0
  0
VERTEX
  5
84
100
AcDbEntity
  8
0
  6
Continuous
100
AcDbVertex
100
AcDb2dVertex
 10
8787.022764
 20
572.57609
 30
0.0
  0
VERTEX
  5
85
100
AcDbEntity
  8
0
  6
Continuous
100
AcDbVertex
100
AcDb2dVertex
 10
8789.570782
 20
575.124108
 30
0.0
  0
VERTEX
  5
86
100
AcDbEntity
  8
0
  6
Continuous
100
AcDbVertex
100
AcDb2dVertex
 10
8813.594954
 20
567.480053
 30
0.0
  0
VERTEX
  5
87
100
AcDbEntity
  8
0
  6
Continuous
100
AcDbVertex
100
AcDb2dVertex
 10
8814.322959
 20
564.568033
 30
0.0
  0
VERTEX
  5
88
100
AcDbEntity
  8
0
  6
Continuous
100
AcDbVertex
100
AcDb2dVertex
 10
8802.674876
 20
514.699676
 30
0.0
  0
VERTEX
  5
89
100
AcDbEntity
  8
0
  6
Continuous
100
AcDbVertex
100
AcDb2dVertex
 10
8799.398852
 20
513.607669
 30
0.0
  0
VERTEX
  5
8A
100
AcDbEntity
  8
0
  6
Continuous
100
AcDbVertex
100
AcDb2dVertex
 10
8799.398852
 20
511.787656
 30
0.0
  0
SEQEND
  5
8B
100
AcDbEntity
  8
0
  6
Continuous
  0
POLYLINE
  5
8C
100
AcDbEntity
  8
0
  6
Continuous
100
AcDb2dPolyline
 66
     1
 10
0.0
 20
0.0
 30
0.0
  0
VERTEX
  5
8D
100
AcDbEntity
  8
0
  6
Continuous
100
AcDbVertex
100
AcDb2dVertex
 10
8673.453953
 20
511.787656
 30
0.0
  0
VERTEX
  5
8E
100
AcDbEntity
  8
0
  6
Continuous
100
AcDbVertex
100
AcDb2dVertex
 10
8673.08995
 20
516.883692
 30
0.0
  0
VERTEX
  5
8F
100
AcDbEntity
  8
0
  6
Continuous
100
AcDbVertex
100
AcDb2dVertex
 10
8649.429781
 20
566.024043
 30
0.0
  0
VERTEX
  5
90
100
AcDbEntity
  8
0
  6
Continuous
100
AcDbVertex
100
AcDb2dVertex
 10
8649.065779
 20
569.300066
 30
0.0
  0
VERTEX
  5
91
100
AcDbEntity
  8
0
  6
Continuous
100
AcDbVertex
100
AcDb2dVertex
 10
8653.43381
 20
569.664069
 30
0.0
  0
VERTEX
  5
92
100
AcDbEntity
  8
0
  6
Continuous
100
AcDbVertex
100
AcDb2dVertex
 10
8668.721919
 20
567.116051
 30
0.0
  0
VERTEX
  5
93
100
AcDbEntity
  8
0
  6
Continuous
100
AcDbVertex
100
AcDb2dVertex
 10
8677.457981
 20
527.439767
 30
0.0
  0
VERTEX
  5
94
100
AcDbEntity
  8
0
  6
Continuous
100
AcDbVertex
100
AcDb2dVertex
 10
8677.821984
 20
527.075765
 30
0.0
  0
VERTEX
  5
95
100
AcDbEntity
  8
0
  6
Continuous
100
AcDbVertex
100
AcDb2dVertex
 10
8684.010028
 20
573.668098
 30
0.0
  0
VERTEX
  5
96
100
AcDbEntity
  8
0
  6
Continuous
100
AcDbVertex
100
AcDb2dVertex
 10
8686.558046
 20
574.760105
 30
0.0
  0
VERTEX
  5
97
100
AcDbEntity
  8
0
  6
Continuous
100
AcDbVertex
100
AcDb2dVertex
 10
8704.758176
 20
563.476025
 30
0.0
  0
VERTEX
  5
98
100
AcDbEntity
  8
0
  6
Continuous
100
AcDbVertex
100
AcDb2dVertex
 10
8686.922049
 20
516.883692
 30
0.0
  0
VERTEX
  5
99
100
AcDbEntity
  8
0
  6
Continuous
100
AcDbVertex
100
AcDb2dVertex
 10
8685.830041
 20
515.791684
 30
0.0
  0
VERTEX
  5
9A
100
AcDbEntity
  8
0
  6
Continuous
100
AcDbVertex
100
AcDb2dVertex
 10
8685.830041
 20
511.787656
 30
0.0
  0
SEQEND
  5
9B
100
AcDbEntity
  8
0
  6
Continuous
  0
POLYLINE
  5
9C
100
AcDbEntity
  8
0
  6
Continuous
100
AcDb2dPolyline
 66
     1
 10
0.0
 20
0.0
 30
0.0
  0
VERTEX
  5
9D
100
AcDbEntity
  8
0
  6
Continuous
100
AcDbVertex
100
AcDb2dVertex
 10
8582.453303
 20
511.787656
 30
0.0
  0
VERTEX
  5
9E
100
AcDbEntity
  8
0
  6
Continuous
100
AcDbVertex
100
AcDb2dVertex
 10
8582.453303
 20
516.883692
 30
0.0
  0
VERTEX
  5
9F
100
AcDbEntity
  8
0
  6
Continuous
100
AcDbVertex
100
AcDb2dVertex
 10
8572.26123
 20
517.9757
 30
0.0
  0
VERTEX
  5
A0
100
AcDbEntity
  8
0
  6
Continuous
100
AcDbVertex
100
AcDb2dVertex
 10
8562.43316
 20
525.255752
 30
0.0
  0
VERTEX
  5
A1
100
AcDbEntity
  8
0
  6
Continuous
100
AcDbVertex
100
AcDb2dVertex
 10
8557.701126
 20
572.212087
 30
0.0
  0
VERTEX
  5
A2
100
AcDbEntity
  8
0
  6
Continuous
100
AcDbVertex
100
AcDb2dVertex
 10
8559.521139
 20
574.760105
 30
0.0
  0
VERTEX
  5
A3
100
AcDbEntity
  8
0
  6
Continuous
100
AcDbVertex
100
AcDb2dVertex
 10
8584.637318
 20
568.208059
 30
0.0
  0
VERTEX
  5
A4
100
AcDbEntity
  8
0
  6
Continuous
100
AcDbVertex
100
AcDb2dVertex
 10
8585.365324
 20
566.388046
 30
0.0
  0
VERTEX
  5
A5
100
AcDbEntity
  8
0
  6
Continuous
100
AcDbVertex
100
AcDb2dVertex
 10
8581.361295
 20
526.34776
 30
0.0
  0
VERTEX
  5
A6
100
AcDbEntity
  8
0
  6
Continuous
100
AcDbVertex
100
AcDb2dVertex
 10
8597.013407
 20
527.439767
 30
0.0
  0
VERTEX
  5
A7
100
AcDbEntity
  8
0
  6
Continuous
100
AcDbVertex
100
AcDb2dVertex
 10
8595.557396
 20
564.568033
 30
0.0
  0
VERTEX
  5
A8
100
AcDbEntity
  8
0
  6
Continuous
100
AcDbVertex
100
AcDb2dVertex
 10
8595.921399
 20
566.024043
 30
0.0
  0
VERTEX
  5
A9
100
AcDbEntity
  8
0
  6
Continuous
100
AcDbVertex
100
AcDb2dVertex
 10
8617.03355
 20
570.028072
 30
0.0
  0
VERTEX
  5
AA
100
AcDbEntity
  8
0
  6
Continuous
100
AcDbVertex
100
AcDb2dVertex
 10
8619.581568
 20
569.664069
 30
0.0
  0
VERTEX
  5
AB
100
AcDbEntity
  8
0
  6
Continuous
100
AcDbVertex
100
AcDb2dVertex
 10
8619.945571
 20
567.480053
 30
0.0
  0
VERTEX
  5
AC
100
AcDbEntity
  8
0
  6
Continuous
100
AcDbVertex
100
AcDb2dVertex
 10
8614.849534
 20
527.075765
 30
0.0
  0
VERTEX
  5
AD
100
AcDbEntity
  8
0
  6
Continuous
100
AcDbVertex
100
AcDb2dVertex
 10
8601.017435
 20
514.335674
 30
0.0
  0
VERTEX
  5
AE
100
AcDbEntity
  8
0
  6
Continuous
100
AcDbVertex
100
AcDb2dVertex
 10
8594.829391
 20
515.063679
 30
0.0
  0
VERTEX
  5
AF
100
AcDbEntity
  8
0
  6
Continuous
100
AcDbVertex
100
AcDb2dVertex
 10
8594.829391
 20
511.787656
 30
0.0
  0
SEQEND
  5
B0
100
AcDbEntity
  8
0
  6
Continuous
  0
POLYLINE
  5
B1
100
AcDbEntity
  8
0
  6
Continuous
100
AcDb2dPolyline
 66
     1
 10
0.0
 20
0.0
 30
0.0
  0
VERTEX
  5
B2
100
AcDbEntity
  8
0
  6
Continuous
100
AcDbVertex
100
AcDb2dVertex
 10
8467.428481
 20
511.787656
 30
0.0
  0
VERTEX
  5
B3
100
AcDbEntity
  8
0
  6
Continuous
100
AcDbVertex
100
AcDb2dVertex
 10
8467.428481
 20
517.247695
 30
0.0
  0
VERTEX
  5
B4
100
AcDbEntity
  8
0
  6
Continuous
100
AcDbVertex
100
AcDb2dVertex
 10
8458.692419
 20
513.607669
 30
0.0
  0
VERTEX
  5
B5
100
AcDbEntity
  8
0
  6
Continuous
100
AcDbVertex
100
AcDb2dVertex
 10
8457.236408
 20
515.791684
 30
0.0
  0
VERTEX
  5
B6
100
AcDbEntity
  8
0
  6
Continuous
100
AcDbVertex
100
AcDb2dVertex
 10
8472.160515
 20
558.015986
 30
0.0
  0
VERTEX
  5
B7
100
AcDbEntity
  8
0
  6
Continuous
100
AcDbVertex
100
AcDb2dVertex
 10
8439.400281
 20
547.45991
 30
0.0
  0
VERTEX
  5
B8
100
AcDbEntity
  8
0
  6
Continuous
100
AcDbVertex
100
AcDb2dVertex
 10
8437.944271
 20
549.279923
 30
0.0
  0
VERTEX
  5
B9
100
AcDbEntity
  8
0
  6
Continuous
100
AcDbVertex
100
AcDb2dVertex
 10
8446.31633
 20
573.304095
 30
0.0
  0
VERTEX
  5
BA
100
AcDbEntity
  8
0
  6
Continuous
100
AcDbVertex
100
AcDb2dVertex
 10
8520.208858
 20
581.676155
 30
0.0
  0
VERTEX
  5
BB
100
AcDbEntity
  8
0
  6
Continuous
100
AcDbVertex
100
AcDb2dVertex
 10
8524.940892
 20
581.676155
 30
0.0
  0
VERTEX
  5
BC
100
AcDbEntity
  8
0
  6
Continuous
100
AcDbVertex
100
AcDb2dVertex
 10
8527.124908
 20
578.764134
 30
0.0
  0
VERTEX
  5
BD
100
AcDbEntity
  8
0
  6
Continuous
100
AcDbVertex
100
AcDb2dVertex
 10
8523.484882
 20
569.664069
 30
0.0
  0
VERTEX
  5
BE
100
AcDbEntity
  8
0
  6
Continuous
100
AcDbVertex
100
AcDb2dVertex
 10
8489.63264
 20
562.384017
 30
0.0
  0
VERTEX
  5
BF
100
AcDbEntity
  8
0
  6
Continuous
100
AcDbVertex
100
AcDb2dVertex
 10
8486.356616
 20
560.564004
 30
0.0
  0
VERTEX
  5
C0
100
AcDbEntity
  8
0
  6
Continuous
100
AcDbVertex
100
AcDb2dVertex
 10
8487.812627
 20
528.895778
 30
0.0
  0
VERTEX
  5
C1
100
AcDbEntity
  8
0
  6
Continuous
100
AcDbVertex
100
AcDb2dVertex
 10
8479.80457
 20
523.799741
 30
0.0
  0
VERTEX
  5
C2
100
AcDbEntity
  8
0
  6
Continuous
100
AcDbVertex
100
AcDb2dVertex
 10
8479.80457
 20
511.787656
 30
0.0
  0
SEQEND
  5
C3
100
AcDbEntity
  8
0
  6
Continuous
  0
POLYLINE
  5
C4
100
AcDbEntity
  8
0
  6
Continuous
100
AcDb2dPolyline
 66
     1
 10
0.0
 20
0.0
 30
0.0
  0
VERTEX
  5
C5
100
AcDbEntity
  8
0
  6
Continuous
100
AcDbVertex
100
AcDb2dVertex
 10
8364.051743
 20
511.787656
 30
0.0
  0
VERTEX
  5
C6
100
AcDbEntity
  8
0
  6
Continuous
100
AcDbVertex
100
AcDb2dVertex
 10
8364.051743
 20
516.519689
 30
0.0
  0
VERTEX
  5
C7
100
AcDbEntity
  8
0
  6
Continuous
100
AcDbVertex
100
AcDb2dVertex
 10
8340.391574
 20
516.155687
 30
0.0
  0
VERTEX
  5
C8
100
AcDbEntity
  8
0
  6
Continuous
100
AcDbVertex
100
AcDb2dVertex
 10
8331.291509
 20
526.711762
 30
0.0
  0
VERTEX
  5
C9
100
AcDbEntity
  8
0
  6
Continuous
100
AcDbVertex
100
AcDb2dVertex
 10
8325.467467
 20
535.083822
 30
0.0
  0
VERTEX
  5
CA
100
AcDbEntity
  8
0
  6
Continuous
100
AcDbVertex
100
AcDb2dVertex
 10
8326.559475
 20
536.539832
 30
0.0
  0
VERTEX
  5
CB
100
AcDbEntity
  8
0
  6
Continuous
100
AcDbVertex
100
AcDb2dVertex
 10
8355.679683
 20
537.995843
 30
0.0
  0
VERTEX
  5
CC
100
AcDbEntity
  8
0
  6
Continuous
100
AcDbVertex
100
AcDb2dVertex
 10
8358.227701
 20
537.63184
 30
0.0
  0
VERTEX
  5
CD
100
AcDbEntity
  8
0
  6
Continuous
100
AcDbVertex
100
AcDb2dVertex
 10
8358.591704
 20
526.34776
 30
0.0
  0
VERTEX
  5
CE
100
AcDbEntity
  8
0
  6
Continuous
100
AcDbVertex
100
AcDb2dVertex
 10
8376.063829
 20
524.163744
 30
0.0
  0
VERTEX
  5
CF
100
AcDbEntity
  8
0
  6
Continuous
100
AcDbVertex
100
AcDb2dVertex
 10
8375.335823
 20
543.455882
 30
0.0
  0
VERTEX
  5
D0
100
AcDbEntity
  8
0
  6
Continuous
100
AcDbVertex
100
AcDb2dVertex
 10
8330.927506
 20
544.183887
 30
0.0
  0
VERTEX
  5
D1
100
AcDbEntity
  8
0
  6
Continuous
100
AcDbVertex
100
AcDb2dVertex
 10
8329.107493
 20
546.0039
 30
0.0
  0
VERTEX
  5
D2
100
AcDbEntity
  8
0
  6
Continuous
100
AcDbVertex
100
AcDb2dVertex
 10
8323.647454
 20
568.208059
 30
0.0
  0
VERTEX
  5
D3
100
AcDbEntity
  8
0
  6
Continuous
100
AcDbVertex
100
AcDb2dVertex
 10
8340.027571
 20
570.028072
 30
0.0
  0
VERTEX
  5
D4
100
AcDbEntity
  8
0
  6
Continuous
100
AcDbVertex
100
AcDb2dVertex
 10
8390.987935
 20
572.940092
 30
0.0
  0
VERTEX
  5
D5
100
AcDbEntity
  8
0
  6
Continuous
100
AcDbVertex
100
AcDb2dVertex
 10
8395.719969
 20
571.484082
 30
0.0
  0
VERTEX
  5
D6
100
AcDbEntity
  8
0
  6
Continuous
100
AcDbVertex
100
AcDb2dVertex
 10
8401.908013
 20
555.83197
 30
0.0
  0
VERTEX
  5
D7
100
AcDbEntity
  8
0
  6
Continuous
100
AcDbVertex
100
AcDb2dVertex
 10
8396.083972
 20
554.37596
 30
0.0
  0
VERTEX
  5
D8
100
AcDbEntity
  8
0
  6
Continuous
100
AcDbVertex
100
AcDb2dVertex
 10
8374.243816
 20
553.647955
 30
0.0
  0
VERTEX
  5
D9
100
AcDbEntity
  8
0
  6
Continuous
100
AcDbVertex
100
AcDb2dVertex
 10
8377.883842
 20
565.296038
 30
0.0
  0
VERTEX
  5
DA
100
AcDbEntity
  8
0
  6
Continuous
100
AcDbVertex
100
AcDb2dVertex
 10
8356.771691
 20
561.292009
 30
0.0
  0
VERTEX
  5
DB
100
AcDbEntity
  8
0
  6
Continuous
100
AcDbVertex
100
AcDb2dVertex
 10
8353.85967
 20
552.555947
 30
0.0
  0
VERTEX
  5
DC
100
AcDbEntity
  8
0
  6
Continuous
100
AcDbVertex
100
AcDb2dVertex
 10
8400.452003
 20
547.45991
 30
0.0
  0
VERTEX
  5
DD
100
AcDbEntity
  8
0
  6
Continuous
100
AcDbVertex
100
AcDb2dVertex
 10
8413.192094
 20
518.339702
 30
0.0
  0
VERTEX
  5
DE
100
AcDbEntity
  8
0
  6
Continuous
100
AcDbVertex
100
AcDb2dVertex
 10
8412.100086
 20
516.883692
 30
0.0
  0
VERTEX
  5
DF
100
AcDbEntity
  8
0
  6
Continuous
100
AcDbVertex
100
AcDb2dVertex
 10
8376.427831
 20
516.883692
 30
0.0
  0
VERTEX
  5
E0
100
AcDbEntity
  8
0
  6
Continuous
100
AcDbVertex
100
AcDb2dVertex
 10
8376.427831
 20
511.787656
 30
0.0
  0
SEQEND
  5
E1
100
AcDbEntity
  8
0
  6
Continuous
  0
POLYLINE
  5
E2
100
AcDbEntity
  8
0
  6
Continuous
100
AcDb2dPolyline
 66
     1
 10
0.0
 20
0.0
 30
0.0
  0
VERTEX
  5
E3
100
AcDbEntity
  8
0
  6
Continuous
100
AcDbVertex
100
AcDb2dVertex
 10
8224.274744
 20
511.787656
 30
0.0
  0
VERTEX
  5
E4
100
AcDbEntity
  8
0
  6
Continuous
100
AcDbVertex
100
AcDb2dVertex
 10
8224.274744
 20
518.703705
 30
0.0
  0
VERTEX
  5
E5
100
AcDbEntity
  8
0
  6
Continuous
100
AcDbVertex
100
AcDb2dVertex
 10
8216.266687
 20
519.43171
 30
0.0
  0
VERTEX
  5
E6
100
AcDbEntity
  8
0
  6
Continuous
100
AcDbVertex
100
AcDb2dVertex
 10
8215.538682
 20
520.523718
 30
0.0
  0
VERTEX
  5
E7
100
AcDbEntity
  8
0
  6
Continuous
100
AcDbVertex
100
AcDb2dVertex
 10
8218.450703
 20
556.195973
 30
0.0
  0
VERTEX
  5
E8
100
AcDbEntity
  8
0
  6
Continuous
100
AcDbVertex
100
AcDb2dVertex
 10
8234.83082
 20
557.651983
 30
0.0
  0
VERTEX
  5
E9
100
AcDbEntity
  8
0
  6
Continuous
100
AcDbVertex
100
AcDb2dVertex
 10
8238.106843
 20
548.551918
 30
0.0
  0
VERTEX
  5
EA
100
AcDbEntity
  8
0
  6
Continuous
100
AcDbVertex
100
AcDb2dVertex
 10
8262.85902
 20
547.823913
 30
0.0
  0
VERTEX
  5
EB
100
AcDbEntity
  8
0
  6
Continuous
100
AcDbVertex
100
AcDb2dVertex
 10
8262.495017
 20
566.024043
 30
0.0
  0
VERTEX
  5
EC
100
AcDbEntity
  8
0
  6
Continuous
100
AcDbVertex
100
AcDb2dVertex
 10
8249.754926
 20
564.932035
 30
0.0
  0
VERTEX
  5
ED
100
AcDbEntity
  8
0
  6
Continuous
100
AcDbVertex
100
AcDb2dVertex
 10
8214.810677
 20
559.835999
 30
0.0
  0
VERTEX
  5
EE
100
AcDbEntity
  8
0
  6
Continuous
100
AcDbVertex
100
AcDb2dVertex
 10
8212.990664
 20
560.564004
 30
0.0
  0
VERTEX
  5
EF
100
AcDbEntity
  8
0
  6
Continuous
100
AcDbVertex
100
AcDb2dVertex
 10
8211.898656
 20
568.208059
 30
0.0
  0
VERTEX
  5
F0
100
AcDbEntity
  8
0
  6
Continuous
100
AcDbVertex
100
AcDb2dVertex
 10
8213.354666
 20
571.120079
 30
0.0
  0
VERTEX
  5
F1
100
AcDbEntity
  8
0
  6
Continuous
100
AcDbVertex
100
AcDb2dVertex
 10
8287.611197
 20
574.396103
 30
0.0
  0
VERTEX
  5
F2
100
AcDbEntity
  8
0
  6
Continuous
100
AcDbVertex
100
AcDb2dVertex
 10
8290.159215
 20
573.668098
 30
0.0
  0
VERTEX
  5
F3
100
AcDbEntity
  8
0
  6
Continuous
100
AcDbVertex
100
AcDb2dVertex
 10
8290.523218
 20
571.120079
 30
0.0
  0
VERTEX
  5
F4
100
AcDbEntity
  8
0
  6
Continuous
100
AcDbVertex
100
AcDb2dVertex
 10
8279.239137
 20
542.727877
 30
0.0
  0
VERTEX
  5
F5
100
AcDbEntity
  8
0
  6
Continuous
100
AcDbVertex
100
AcDb2dVertex
 10
8268.319059
 20
541.635869
 30
0.0
  0
VERTEX
  5
F6
100
AcDbEntity
  8
0
  6
Continuous
100
AcDbVertex
100
AcDb2dVertex
 10
8257.762984
 20
541.271866
 30
0.0
  0
VERTEX
  5
F7
100
AcDbEntity
  8
0
  6
Continuous
100
AcDbVertex
100
AcDb2dVertex
 10
8295.619254
 20
520.159715
 30
0.0
  0
VERTEX
  5
F8
100
AcDbEntity
  8
0
  6
Continuous
100
AcDbVertex
100
AcDb2dVertex
 10
8300.351288
 20
515.791684
 30
0.0
  0
VERTEX
  5
F9
100
AcDbEntity
  8
0
  6
Continuous
100
AcDbVertex
100
AcDb2dVertex
 10
8299.25928
 20
514.699676
 30
0.0
  0
VERTEX
  5
FA
100
AcDbEntity
  8
0
  6
Continuous
100
AcDbVertex
100
AcDb2dVertex
 10
8278.147129
 20
515.063679
 30
0.0
  0
VERTEX
  5
FB
100
AcDbEntity
  8
0
  6
Continuous
100
AcDbVertex
100
AcDb2dVertex
 10
8273.415095
 20
514.699676
 30
0.0
  0
VERTEX
  5
FC
100
AcDbEntity
  8
0
  6
Continuous
100
AcDbVertex
100
AcDb2dVertex
 10
8245.386895
 20
540.179858
 30
0.0
  0
VERTEX
  5
FD
100
AcDbEntity
  8
0
  6
Continuous
100
AcDbVertex
100
AcDb2dVertex
 10
8241.018864
 20
540.179858
 30
0.0
  0
VERTEX
  5
FE
100
AcDbEntity
  8
0
  6
Continuous
100
AcDbVertex
100
AcDb2dVertex
 10
8246.842906
 20
517.247695
 30
0.0
  0
VERTEX
  5
FF
100
AcDbEntity
  8
0
  6
Continuous
100
AcDbVertex
100
AcDb2dVertex
 10
8244.65889
 20
516.155687
 30
0.0
  0
VERTEX
  5
100
100
AcDbEntity
  8
0
  6
Continuous
100
AcDbVertex
100
AcDb2dVertex
 10
8236.650833
 20
517.247695
 30
0.0
  0
VERTEX
  5
101
100
AcDbEntity
  8
0
  6
Continuous
100
AcDbVertex
100
AcDb2dVertex
 10
8236.650833
 20
511.787656
 30
0.0
  0
SEQEND
  5
102
100
AcDbEntity
  8
0
  6
Continuous
  0
POLYLINE
  5
103
100
AcDbEntity
  8
0
  6
Continuous
100
AcDb2dPolyline
 66
     1
 10
0.0
 20
0.0
 30
0.0
  0
VERTEX
  5
104
100
AcDbEntity
  8
0
  6
Continuous
100
AcDbVertex
100
AcDb2dVertex
 10
8193.698526
 20
511.787656
 30
0.0
  0
VERTEX
  5
105
100
AcDbEntity
  8
0
  6
Continuous
100
AcDbVertex
100
AcDb2dVertex
 10
8177.318409
 20
525.619754
 30
0.0
  0
VERTEX
  5
106
100
AcDbEntity
  8
0
  6
Continuous
100
AcDbVertex
100
AcDb2dVertex
 10
8179.866427
 20
571.484082
 30
0.0
  0
VERTEX
  5
107
100
AcDbEntity
  8
0
  6
Continuous
100
AcDbVertex
100
AcDb2dVertex
 10
8177.682412
 20
572.940092
 30
0.0
  0
VERTEX
  5
108
100
AcDbEntity
  8
0
  6
Continuous
100
AcDbVertex
100
AcDb2dVertex
 10
8131.818084
 20
576.216116
 30
0.0
  0
VERTEX
  5
109
100
AcDbEntity
  8
0
  6
Continuous
100
AcDbVertex
100
AcDb2dVertex
 10
8130.726076
 20
576.216116
 30
0.0
  0
VERTEX
  5
10A
100
AcDbEntity
  8
0
  6
Continuous
100
AcDbVertex
100
AcDb2dVertex
 10
8130.362074
 20
565.296038
 30
0.0
  0
VERTEX
  5
10B
100
AcDbEntity
  8
0
  6
Continuous
100
AcDbVertex
100
AcDb2dVertex
 10
8151.838227
 20
567.844056
 30
0.0
  0
VERTEX
  5
10C
100
AcDbEntity
  8
0
  6
Continuous
100
AcDbVertex
100
AcDb2dVertex
 10
8163.122308
 20
567.844056
 30
0.0
  0
VERTEX
  5
10D
100
AcDbEntity
  8
0
  6
Continuous
100
AcDbVertex
100
AcDb2dVertex
 10
8164.214315
 20
567.116051
 30
0.0
  0
VERTEX
  5
10E
100
AcDbEntity
  8
0
  6
Continuous
100
AcDbVertex
100
AcDb2dVertex
 10
8161.302295
 20
544.911892
 30
0.0
  0
VERTEX
  5
10F
100
AcDbEntity
  8
0
  6
Continuous
100
AcDbVertex
100
AcDb2dVertex
 10
8158.026271
 20
528.531775
 30
0.0
  0
VERTEX
  5
110
100
AcDbEntity
  8
0
  6
Continuous
100
AcDbVertex
100
AcDb2dVertex
 10
8145.28618
 20
529.623783
 30
0.0
  0
VERTEX
  5
111
100
AcDbEntity
  8
0
  6
Continuous
100
AcDbVertex
100
AcDb2dVertex
 10
8151.110222
 20
563.476025
 30
0.0
  0
VERTEX
  5
112
100
AcDbEntity
  8
0
  6
Continuous
100
AcDbVertex
100
AcDb2dVertex
 10
8129.998071
 20
559.835999
 30
0.0
  0
VERTEX
  5
113
100
AcDbEntity
  8
0
  6
Continuous
100
AcDbVertex
100
AcDb2dVertex
 10
8128.542061
 20
517.247695
 30
0.0
  0
VERTEX
  5
114
100
AcDbEntity
  8
0
  6
Continuous
100
AcDbVertex
100
AcDb2dVertex
 10
8131.090079
 20
516.155687
 30
0.0
  0
VERTEX
  5
115
100
AcDbEntity
  8
0
  6
Continuous
100
AcDbVertex
100
AcDb2dVertex
 10
8168.946349
 20
520.887721
 30
0.0
  0
VERTEX
  5
116
100
AcDbEntity
  8
0
  6
Continuous
100
AcDbVertex
100
AcDb2dVertex
 10
8175.134393
 20
511.787656
 30
0.0
  0
SEQEND
  5
117
100
AcDbEntity
  8
0
  6
Continuous
  0
POLYLINE
  5
118
100
AcDbEntity
  8
0
  6
Continuous
100
AcDb2dPolyline
 66
     1
 10
0.0
 20
0.0
 30
0.0
  0
VERTEX
  5
119
100
AcDbEntity
  8
0
  6
Continuous
100
AcDbVertex
100
AcDb2dVertex
 10
8044.821463
 20
511.787656
 30
0.0
  0
VERTEX
  5
11A
100
AcDbEntity
  8
0
  6
Continuous
100
AcDbVertex
100
AcDb2dVertex
 10
8044.821463
 20
516.519689
 30
0.0
  0
VERTEX
  5
11B
100
AcDbEntity
  8
0
  6
Continuous
100
AcDbVertex
100
AcDb2dVertex
 10
8038.997421
 20
517.247695
 30
0.0
  0
VERTEX
  5
11C
100
AcDbEntity
  8
0
  6
Continuous
100
AcDbVertex
100
AcDb2dVertex
 10
8038.269416
 20
518.339702
 30
0.0
  0
VERTEX
  5
11D
100
AcDbEntity
  8
0
  6
Continuous
100
AcDbVertex
100
AcDb2dVertex
 10
8040.089429
 20
552.919949
 30
0.0
  0
VERTEX
  5
11E
100
AcDbEntity
  8
0
  6
Continuous
100
AcDbVertex
100
AcDb2dVertex
 10
8054.649533
 20
556.195973
 30
0.0
  0
VERTEX
  5
11F
100
AcDbEntity
  8
0
  6
Continuous
100
AcDbVertex
100
AcDb2dVertex
 10
8057.197551
 20
547.823913
 30
0.0
  0
VERTEX
  5
120
100
AcDbEntity
  8
0
  6
Continuous
100
AcDbVertex
100
AcDb2dVertex
 10
8063.021593
 20
546.731905
 30
0.0
  0
VERTEX
  5
121
100
AcDbEntity
  8
0
  6
Continuous
100
AcDbVertex
100
AcDb2dVertex
 10
8077.581697
 20
547.45991
 30
0.0
  0
VERTEX
  5
122
100
AcDbEntity
  8
0
  6
Continuous
100
AcDbVertex
100
AcDb2dVertex
 10
8077.581697
 20
564.932035
 30
0.0
  0
VERTEX
  5
123
100
AcDbEntity
  8
0
  6
Continuous
100
AcDbVertex
100
AcDb2dVertex
 10
8037.905413
 20
558.379988
 30
0.0
  0
VERTEX
  5
124
100
AcDbEntity
  8
0
  6
Continuous
100
AcDbVertex
100
AcDb2dVertex
 10
8034.993392
 20
570.756077
 30
0.0
  0
VERTEX
  5
125
100
AcDbEntity
  8
0
  6
Continuous
100
AcDbVertex
100
AcDb2dVertex
 10
8100.149858
 20
572.940092
 30
0.0
  0
VERTEX
  5
126
100
AcDbEntity
  8
0
  6
Continuous
100
AcDbVertex
100
AcDb2dVertex
 10
8100.877863
 20
571.120079
 30
0.0
  0
VERTEX
  5
127
100
AcDbEntity
  8
0
  6
Continuous
100
AcDbVertex
100
AcDb2dVertex
 10
8091.049793
 20
540.907864
 30
0.0
  0
VERTEX
  5
128
100
AcDbEntity
  8
0
  6
Continuous
100
AcDbVertex
100
AcDb2dVertex
 10
8059.745569
 20
538.359845
 30
0.0
  0
VERTEX
  5
129
100
AcDbEntity
  8
0
  6
Continuous
100
AcDbVertex
100
AcDb2dVertex
 10
8064.477603
 20
516.519689
 30
0.0
  0
VERTEX
  5
12A
100
AcDbEntity
  8
0
  6
Continuous
100
AcDbVertex
100
AcDb2dVertex
 10
8062.293587
 20
515.063679
 30
0.0
  0
VERTEX
  5
12B
100
AcDbEntity
  8
0
  6
Continuous
100
AcDbVertex
100
AcDb2dVertex
 10
8057.197551
 20
515.427682
 30
0.0
  0
VERTEX
  5
12C
100
AcDbEntity
  8
0
  6
Continuous
100
AcDbVertex
100
AcDb2dVertex
 10
8057.197551
 20
511.787656
 30
0.0
  0
SEQEND
  5
12D
100
AcDbEntity
  8
0
  6
Continuous
  0
POLYLINE
  5
12E
100
AcDbEntity
  8
0
  6
Continuous
100
AcDb2dPolyline
 66
     1
 10
0.0
 20
0.0
 30
0.0
  0
VERTEX
  5
12F
100
AcDbEntity
  8
0
  6
Continuous
100
AcDbVertex
100
AcDb2dVertex
 10
7966.924906
 20
511.787656
 30
0.0
  0
VERTEX
  5
130
100
AcDbEntity
  8
0
  6
Continuous
100
AcDbVertex
100
AcDb2dVertex
 10
7966.924906
 20
516.155687
 30
0.0
  0
VERTEX
  5
131
100
AcDbEntity
  8
0
  6
Continuous
100
AcDbVertex
100
AcDb2dVertex
 10
7947.996771
 20
518.339702
 30
0.0
  0
VERTEX
  5
132
100
AcDbEntity
  8
0
  6
Continuous
100
AcDbVertex
100
AcDb2dVertex
 10
7947.632768
 20
520.159715
 30
0.0
  0
VERTEX
  5
133
100
AcDbEntity
  8
0
  6
Continuous
100
AcDbVertex
100
AcDb2dVertex
 10
7954.548818
 20
553.283952
 30
0.0
  0
VERTEX
  5
134
100
AcDbEntity
  8
0
  6
Continuous
100
AcDbVertex
100
AcDb2dVertex
 10
7970.928935
 20
556.559975
 30
0.0
  0
VERTEX
  5
135
100
AcDbEntity
  8
0
  6
Continuous
100
AcDbVertex
100
AcDb2dVertex
 10
7971.292937
 20
523.799741
 30
0.0
  0
VERTEX
  5
136
100
AcDbEntity
  8
0
  6
Continuous
100
AcDbVertex
100
AcDb2dVertex
 10
7983.305023
 20
524.163744
 30
0.0
  0
VERTEX
  5
137
100
AcDbEntity
  8
0
  6
Continuous
100
AcDbVertex
100
AcDb2dVertex
 10
7984.033028
 20
546.367903
 30
0.0
  0
VERTEX
  5
138
100
AcDbEntity
  8
0
  6
Continuous
100
AcDbVertex
100
AcDb2dVertex
 10
7983.305023
 20
562.384017
 30
0.0
  0
VERTEX
  5
139
100
AcDbEntity
  8
0
  6
Continuous
100
AcDbVertex
100
AcDb2dVertex
 10
7956.004828
 20
559.107994
 30
0.0
  0
VERTEX
  5
13A
100
AcDbEntity
  8
0
  6
Continuous
100
AcDbVertex
100
AcDb2dVertex
 10
7958.552846
 20
567.844056
 30
0.0
  0
VERTEX
  5
13B
100
AcDbEntity
  8
0
  6
Continuous
100
AcDbVertex
100
AcDb2dVertex
 10
8004.053171
 20
573.304095
 30
0.0
  0
VERTEX
  5
13C
100
AcDbEntity
  8
0
  6
Continuous
100
AcDbVertex
100
AcDb2dVertex
 10
8006.60119
 20
571.848085
 30
0.0
  0
VERTEX
  5
13D
100
AcDbEntity
  8
0
  6
Continuous
100
AcDbVertex
100
AcDb2dVertex
 10
7996.409117
 20
520.523718
 30
0.0
  0
VERTEX
  5
13E
100
AcDbEntity
  8
0
  6
Continuous
100
AcDbVertex
100
AcDb2dVertex
 10
7994.953106
 20
514.335674
 30
0.0
  0
VERTEX
  5
13F
100
AcDbEntity
  8
0
  6
Continuous
100
AcDbVertex
100
AcDb2dVertex
 10
7979.300995
 20
515.427682
 30
0.0
  0
VERTEX
  5
140
100
AcDbEntity
  8
0
  6
Continuous
100
AcDbVertex
100
AcDb2dVertex
 10
7979.300995
 20
511.787656
 30
0.0
  0
SEQEND
  5
141
100
AcDbEntity
  8
0
  6
Continuous
  0
POLYLINE
  5
142
100
AcDbEntity
  8
0
  6
Continuous
100
AcDb2dPolyline
 66
     1
 10
0.0
 20
0.0
 30
0.0
  0
VERTEX
  5
143
100
AcDbEntity
  8
0
  6
Continuous
100
AcDbVertex
100
AcDb2dVertex
 10
7868.280202
 20
511.787656
 30
0.0
  0
VERTEX
  5
144
100
AcDbEntity
  8
0
  6
Continuous
100
AcDbVertex
100
AcDb2dVertex
 10
7868.280202
 20
516.883692
 30
0.0
  0
VERTEX
  5
145
100
AcDbEntity
  8
0
  6
Continuous
100
AcDbVertex
100
AcDb2dVertex
 10
7866.096186
 20
516.883692
 30
0.0
  0
VERTEX
  5
146
100
AcDbEntity
  8
0
  6
Continuous
100
AcDbVertex
100
AcDb2dVertex
 10
7865.732183
 20
563.476025
 30
0.0
  0
VERTEX
  5
147
100
AcDbEntity
  8
0
  6
Continuous
100
AcDbVertex
100
AcDb2dVertex
 10
7883.568311
 20
573.668098
 30
0.0
  0
VERTEX
  5
148
100
AcDbEntity
  8
0
  6
Continuous
100
AcDbVertex
100
AcDb2dVertex
 10
7897.40041
 20
540.543861
 30
0.0
  0
VERTEX
  5
149
100
AcDbEntity
  8
0
  6
Continuous
100
AcDbVertex
100
AcDb2dVertex
 10
7897.40041
 20
548.187916
 30
0.0
  0
VERTEX
  5
14A
100
AcDbEntity
  8
0
  6
Continuous
100
AcDbVertex
100
AcDb2dVertex
 10
7894.488389
 20
568.208059
 30
0.0
  0
VERTEX
  5
14B
100
AcDbEntity
  8
0
  6
Continuous
100
AcDbVertex
100
AcDb2dVertex
 10
7916.328545
 20
572.212087
 30
0.0
  0
VERTEX
  5
14C
100
AcDbEntity
  8
0
  6
Continuous
100
AcDbVertex
100
AcDb2dVertex
 10
7916.692547
 20
569.664069
 30
0.0
  0
VERTEX
  5
14D
100
AcDbEntity
  8
0
  6
Continuous
100
AcDbVertex
100
AcDb2dVertex
 10
7909.048493
 20
515.791684
 30
0.0
  0
VERTEX
  5
14E
100
AcDbEntity
  8
0
  6
Continuous
100
AcDbVertex
100
AcDb2dVertex
 10
7905.772469
 20
515.791684
 30
0.0
  0
VERTEX
  5
14F
100
AcDbEntity
  8
0
  6
Continuous
100
AcDbVertex
100
AcDb2dVertex
 10
7901.404438
 20
517.611697
 30
0.0
  0
VERTEX
  5
150
100
AcDbEntity
  8
0
  6
Continuous
100
AcDbVertex
100
AcDb2dVertex
 10
7877.016264
 20
547.45991
 30
0.0
  0
VERTEX
  5
151
100
AcDbEntity
  8
0
  6
Continuous
100
AcDbVertex
100
AcDb2dVertex
 10
7882.476303
 20
516.519689
 30
0.0
  0
VERTEX
  5
152
100
AcDbEntity
  8
0
  6
Continuous
100
AcDbVertex
100
AcDb2dVertex
 10
7880.65629
 20
516.519689
 30
0.0
  0
VERTEX
  5
153
100
AcDbEntity
  8
0
  6
Continuous
100
AcDbVertex
100
AcDb2dVertex
 10
7880.65629
 20
511.787656
 30
0.0
  0
SEQEND
  5
154
100
AcDbEntity
  8
0
  6
Continuous
  0
POLYLINE
  5
155
100
AcDbEntity
  8
0
  6
Continuous
100
AcDb2dPolyline
 66
     1
 10
0.0
 20
0.0
 30
0.0
  0
VERTEX
  5
156
100
AcDbEntity
  8
0
  6
Continuous
100
AcDbVertex
100
AcDb2dVertex
 10
9074.584818
 20
608.248345
 30
0.0
  0
VERTEX
  5
157
100
AcDbEntity
  8
0
  6
Continuous
100
AcDbVertex
100
AcDb2dVertex
 10
9074.584818
 20
611.524368
 30
0.0
  0
VERTEX
  5
158
100
AcDbEntity
  8
0
  6
Continuous
100
AcDbVertex
100
AcDb2dVertex
 10
9067.668769
 20
611.160365
 30
0.0
  0
VERTEX
  5
159
100
AcDbEntity
  8
0
  6
Continuous
100
AcDbVertex
100
AcDb2dVertex
 10
9066.576761
 20
611.524368
 30
0.0
  0
VERTEX
  5
15A
100
AcDbEntity
  8
0
  6
Continuous
100
AcDbVertex
100
AcDb2dVertex
 10
9061.480724
 20
645.37661
 30
0.0
  0
VERTEX
  5
15B
100
AcDbEntity
  8
0
  6
Continuous
100
AcDbVertex
100
AcDb2dVertex
 10
9056.748691
 20
644.284602
 30
0.0
  0
VERTEX
  5
15C
100
AcDbEntity
  8
0
  6
Continuous
100
AcDbVertex
100
AcDb2dVertex
 10
9051.652654
 20
636.276545
 30
0.0
  0
VERTEX
  5
15D
100
AcDbEntity
  8
0
  6
Continuous
100
AcDbVertex
100
AcDb2dVertex
 10
9044.736605
 20
618.80442
 30
0.0
  0
VERTEX
  5
15E
100
AcDbEntity
  8
0
  6
Continuous
100
AcDbVertex
100
AcDb2dVertex
 10
9042.188587
 20
617.712412
 30
0.0
  0
VERTEX
  5
15F
100
AcDbEntity
  8
0
  6
Continuous
100
AcDbVertex
100
AcDb2dVertex
 10
9021.076436
 20
647.560625
 30
0.0
  0
VERTEX
  5
160
100
AcDbEntity
  8
0
  6
Continuous
100
AcDbVertex
100
AcDb2dVertex
 10
9020.348431
 20
641.372581
 30
0.0
  0
VERTEX
  5
161
100
AcDbEntity
  8
0
  6
Continuous
100
AcDbVertex
100
AcDb2dVertex
 10
9022.896449
 20
613.344381
 30
0.0
  0
VERTEX
  5
162
100
AcDbEntity
  8
0
  6
Continuous
100
AcDbVertex
100
AcDb2dVertex
 10
9005.788327
 20
613.344381
 30
0.0
  0
VERTEX
  5
163
100
AcDbEntity
  8
0
  6
Continuous
100
AcDbVertex
100
AcDb2dVertex
 10
9005.424324
 20
615.164394
 30
0.0
  0
VERTEX
  5
164
100
AcDbEntity
  8
0
  6
Continuous
100
AcDbVertex
100
AcDb2dVertex
 10
9014.888392
 20
662.120729
 30
0.0
  0
VERTEX
  5
165
100
AcDbEntity
  8
0
  6
Continuous
100
AcDbVertex
100
AcDb2dVertex
 10
9026.172472
 20
666.488761
 30
0.0
  0
VERTEX
  5
166
100
AcDbEntity
  8
0
  6
Continuous
100
AcDbVertex
100
AcDb2dVertex
 10
9034.908535
 20
668.672776
 30
0.0
  0
VERTEX
  5
167
100
AcDbEntity
  8
0
  6
Continuous
100
AcDbVertex
100
AcDb2dVertex
 10
9037.820555
 20
666.488761
 30
0.0
  0
VERTEX
  5
168
100
AcDbEntity
  8
0
  6
Continuous
100
AcDbVertex
100
AcDb2dVertex
 10
9048.012628
 20
645.37661
 30
0.0
  0
VERTEX
  5
169
100
AcDbEntity
  8
0
  6
Continuous
100
AcDbVertex
100
AcDb2dVertex
 10
9054.928678
 20
665.03275
 30
0.0
  0
VERTEX
  5
16A
100
AcDbEntity
  8
0
  6
Continuous
100
AcDbVertex
100
AcDb2dVertex
 10
9072.0368
 20
668.308774
 30
0.0
  0
VERTEX
  5
16B
100
AcDbEntity
  8
0
  6
Continuous
100
AcDbVertex
100
AcDb2dVertex
 10
9093.876956
 20
616.984407
 30
0.0
  0
VERTEX
  5
16C
100
AcDbEntity
  8
0
  6
Continuous
100
AcDbVertex
100
AcDb2dVertex
 10
9086.960906
 20
614.072386
 30
0.0
  0
VERTEX
  5
16D
100
AcDbEntity
  8
0
  6
Continuous
100
AcDbVertex
100
AcDb2dVertex
 10
9086.960906
 20
608.248345
 30
0.0
  0
SEQEND
  5
16E
100
AcDbEntity
  8
0
  6
Continuous
  0
POLYLINE
  5
16F
100
AcDbEntity
  8
0
  6
Continuous
100
AcDb2dPolyline
 66
     1
 10
0.0
 20
0.0
 30
0.0
  0
VERTEX
  5
170
100
AcDbEntity
  8
0
  6
Continuous
100
AcDbVertex
100
AcDb2dVertex
 10
8940.995864
 20
608.248345
 30
0.0
  0
VERTEX
  5
171
100
AcDbEntity
  8
0
  6
Continuous
100
AcDbVertex
100
AcDb2dVertex
 10
8940.995864
 20
612.980378
 30
0.0
  0
VERTEX
  5
172
100
AcDbEntity
  8
0
  6
Continuous
100
AcDbVertex
100
AcDb2dVertex
 10
8923.523739
 20
613.708384
 30
0.0
  0
VERTEX
  5
173
100
AcDbEntity
  8
0
  6
Continuous
100
AcDbVertex
100
AcDb2dVertex
 10
8922.795734
 20
615.892399
 30
0.0
  0
VERTEX
  5
174
100
AcDbEntity
  8
0
  6
Continuous
100
AcDbVertex
100
AcDb2dVertex
 10
8932.987807
 20
666.488761
 30
0.0
  0
VERTEX
  5
175
100
AcDbEntity
  8
0
  6
Continuous
100
AcDbVertex
100
AcDb2dVertex
 10
8939.539853
 20
668.308774
 30
0.0
  0
VERTEX
  5
176
100
AcDbEntity
  8
0
  6
Continuous
100
AcDbVertex
100
AcDb2dVertex
 10
8945.363895
 20
668.672776
 30
0.0
  0
VERTEX
  5
177
100
AcDbEntity
  8
0
  6
Continuous
100
AcDbVertex
100
AcDb2dVertex
 10
8947.911913
 20
623.172451
 30
0.0
  0
VERTEX
  5
178
100
AcDbEntity
  8
0
  6
Continuous
100
AcDbVertex
100
AcDb2dVertex
 10
8948.275916
 20
621.716441
 30
0.0
  0
VERTEX
  5
179
100
AcDbEntity
  8
0
  6
Continuous
100
AcDbVertex
100
AcDb2dVertex
 10
8974.1201
 20
631.544511
 30
0.0
  0
VERTEX
  5
17A
100
AcDbEntity
  8
0
  6
Continuous
100
AcDbVertex
100
AcDb2dVertex
 10
8975.940113
 20
629.360495
 30
0.0
  0
VERTEX
  5
17B
100
AcDbEntity
  8
0
  6
Continuous
100
AcDbVertex
100
AcDb2dVertex
 10
8970.480074
 20
612.252373
 30
0.0
  0
VERTEX
  5
17C
100
AcDbEntity
  8
0
  6
Continuous
100
AcDbVertex
100
AcDb2dVertex
 10
8953.371952
 20
612.252373
 30
0.0
  0
VERTEX
  5
17D
100
AcDbEntity
  8
0
  6
Continuous
100
AcDbVertex
100
AcDb2dVertex
 10
8953.371952
 20
608.248345
 30
0.0
  0
SEQEND
  5
17E
100
AcDbEntity
  8
0
  6
Continuous
  0
POLYLINE
  5
17F
100
AcDbEntity
  8
0
  6
Continuous
100
AcDb2dPolyline
 66
     1
 10
0.0
 20
0.0
 30
0.0
  0
VERTEX
  5
180
100
AcDbEntity
  8
0
  6
Continuous
100
AcDbVertex
100
AcDb2dVertex
 10
8829.975071
 20
608.248345
 30
0.0
  0
VERTEX
  5
181
100
AcDbEntity
  8
0
  6
Continuous
100
AcDbVertex
100
AcDb2dVertex
 10
8829.975071
 20
612.980378
 30
0.0
  0
VERTEX
  5
182
100
AcDbEntity
  8
0
  6
Continuous
100
AcDbVertex
100
AcDb2dVertex
 10
8825.243037
 20
613.344381
 30
0.0
  0
VERTEX
  5
183
100
AcDbEntity
  8
0
  6
Continuous
100
AcDbVertex
100
AcDb2dVertex
 10
8821.239008
 20
669.036779
 30
0.0
  0
VERTEX
  5
184
100
AcDbEntity
  8
0
  6
Continuous
100
AcDbVertex
100
AcDb2dVertex
 10
8824.515032
 20
669.400781
 30
0.0
  0
VERTEX
  5
185
100
AcDbEntity
  8
0
  6
Continuous
100
AcDbVertex
100
AcDb2dVertex
 10
8832.159086
 20
666.488761
 30
0.0
  0
VERTEX
  5
186
100
AcDbEntity
  8
0
  6
Continuous
100
AcDbVertex
100
AcDb2dVertex
 10
8839.439138
 20
643.556597
 30
0.0
  0
VERTEX
  5
187
100
AcDbEntity
  8
0
  6
Continuous
100
AcDbVertex
100
AcDb2dVertex
 10
8854.727248
 20
666.852763
 30
0.0
  0
VERTEX
  5
188
100
AcDbEntity
  8
0
  6
Continuous
100
AcDbVertex
100
AcDb2dVertex
 10
8868.923349
 20
668.308774
 30
0.0
  0
VERTEX
  5
189
100
AcDbEntity
  8
0
  6
Continuous
100
AcDbVertex
100
AcDb2dVertex
 10
8882.027443
 20
670.856792
 30
0.0
  0
VERTEX
  5
18A
100
AcDbEntity
  8
0
  6
Continuous
100
AcDbVertex
100
AcDb2dVertex
 10
8883.483453
 20
669.036779
 30
0.0
  0
VERTEX
  5
18B
100
AcDbEntity
  8
0
  6
Continuous
100
AcDbVertex
100
AcDb2dVertex
 10
8848.539203
 20
640.644576
 30
0.0
  0
VERTEX
  5
18C
100
AcDbEntity
  8
0
  6
Continuous
100
AcDbVertex
100
AcDb2dVertex
 10
8867.831341
 20
627.904485
 30
0.0
  0
VERTEX
  5
18D
100
AcDbEntity
  8
0
  6
Continuous
100
AcDbVertex
100
AcDb2dVertex
 10
8893.311523
 20
613.344381
 30
0.0
  0
VERTEX
  5
18E
100
AcDbEntity
  8
0
  6
Continuous
100
AcDbVertex
100
AcDb2dVertex
 10
8894.767534
 20
611.524368
 30
0.0
  0
VERTEX
  5
18F
100
AcDbEntity
  8
0
  6
Continuous
100
AcDbVertex
100
AcDb2dVertex
 10
8893.675526
 20
610.43236
 30
0.0
  0
VERTEX
  5
190
100
AcDbEntity
  8
0
  6
Continuous
100
AcDbVertex
100
AcDb2dVertex
 10
8870.379359
 20
610.796363
 30
0.0
  0
VERTEX
  5
191
100
AcDbEntity
  8
0
  6
Continuous
100
AcDbVertex
100
AcDb2dVertex
 10
8847.083193
 20
632.272516
 30
0.0
  0
VERTEX
  5
192
100
AcDbEntity
  8
0
  6
Continuous
100
AcDbVertex
100
AcDb2dVertex
 10
8843.443167
 20
631.908514
 30
0.0
  0
VERTEX
  5
193
100
AcDbEntity
  8
0
  6
Continuous
100
AcDbVertex
100
AcDb2dVertex
 10
8848.539203
 20
613.344381
 30
0.0
  0
VERTEX
  5
194
100
AcDbEntity
  8
0
  6
Continuous
100
AcDbVertex
100
AcDb2dVertex
 10
8844.535175
 20
611.888371
 30
0.0
  0
VERTEX
  5
195
100
AcDbEntity
  8
0
  6
Continuous
100
AcDbVertex
100
AcDb2dVertex
 10
8842.351159
 20
612.252373
 30
0.0
  0
VERTEX
  5
196
100
AcDbEntity
  8
0
  6
Continuous
100
AcDbVertex
100
AcDb2dVertex
 10
8842.351159
 20
608.248345
 30
0.0
  0
SEQEND
  5
197
100
AcDbEntity
  8
0
  6
Continuous
  0
POLYLINE
  5
198
100
AcDbEntity
  8
0
  6
Continuous
100
AcDb2dPolyline
 66
     1
 10
0.0
 20
0.0
 30
0.0
  0
VERTEX
  5
199
100
AcDbEntity
  8
0
  6
Continuous
100
AcDbVertex
100
AcDb2dVertex
 10
8758.994564
 20
608.248345
 30
0.0
  0
VERTEX
  5
19A
100
AcDbEntity
  8
0
  6
Continuous
100
AcDbVertex
100
AcDb2dVertex
 10
8758.994564
 20
615.528397
 30
0.0
  0
VERTEX
  5
19B
100
AcDbEntity
  8
0
  6
Continuous
100
AcDbVertex
100
AcDb2dVertex
 10
8742.978449
 20
617.34841
 30
0.0
  0
VERTEX
  5
19C
100
AcDbEntity
  8
0
  6
Continuous
100
AcDbVertex
100
AcDb2dVertex
 10
8736.0624
 20
634.456532
 30
0.0
  0
VERTEX
  5
19D
100
AcDbEntity
  8
0
  6
Continuous
100
AcDbVertex
100
AcDb2dVertex
 10
8736.790405
 20
635.912542
 30
0.0
  0
VERTEX
  5
19E
100
AcDbEntity
  8
0
  6
Continuous
100
AcDbVertex
100
AcDb2dVertex
 10
8755.354538
 20
637.368553
 30
0.0
  0
VERTEX
  5
19F
100
AcDbEntity
  8
0
  6
Continuous
100
AcDbVertex
100
AcDb2dVertex
 10
8756.082543
 20
634.820534
 30
0.0
  0
VERTEX
  5
1A0
100
AcDbEntity
  8
0
  6
Continuous
100
AcDbVertex
100
AcDb2dVertex
 10
8754.990535
 20
624.264459
 30
0.0
  0
VERTEX
  5
1A1
100
AcDbEntity
  8
0
  6
Continuous
100
AcDbVertex
100
AcDb2dVertex
 10
8756.810548
 20
623.536454
 30
0.0
  0
VERTEX
  5
1A2
100
AcDbEntity
  8
0
  6
Continuous
100
AcDbVertex
100
AcDb2dVertex
 10
8773.190665
 20
626.084472
 30
0.0
  0
VERTEX
  5
1A3
100
AcDbEntity
  8
0
  6
Continuous
100
AcDbVertex
100
AcDb2dVertex
 10
8774.646676
 20
627.540482
 30
0.0
  0
VERTEX
  5
1A4
100
AcDbEntity
  8
0
  6
Continuous
100
AcDbVertex
100
AcDb2dVertex
 10
8767.002621
 20
675.224823
 30
0.0
  0
VERTEX
  5
1A5
100
AcDbEntity
  8
0
  6
Continuous
100
AcDbVertex
100
AcDb2dVertex
 10
8768.458631
 20
675.588826
 30
0.0
  0
VERTEX
  5
1A6
100
AcDbEntity
  8
0
  6
Continuous
100
AcDbVertex
100
AcDb2dVertex
 10
8793.210808
 20
665.760755
 30
0.0
  0
VERTEX
  5
1A7
100
AcDbEntity
  8
0
  6
Continuous
100
AcDbVertex
100
AcDb2dVertex
 10
8791.026793
 20
615.164394
 30
0.0
  0
VERTEX
  5
1A8
100
AcDbEntity
  8
0
  6
Continuous
100
AcDbVertex
100
AcDb2dVertex
 10
8789.570782
 20
610.43236
 30
0.0
  0
VERTEX
  5
1A9
100
AcDbEntity
  8
0
  6
Continuous
100
AcDbVertex
100
AcDb2dVertex
 10
8771.370652
 20
612.980378
 30
0.0
  0
VERTEX
  5
1AA
100
AcDbEntity
  8
0
  6
Continuous
100
AcDbVertex
100
AcDb2dVertex
 10
8771.370652
 20
608.248345
 30
0.0
  0
SEQEND
  5
1AB
100
AcDbEntity
  8
0
  6
Continuous
  0
POLYLINE
  5
1AC
100
AcDbEntity
  8
0
  6
Continuous
100
AcDb2dPolyline
 66
     1
 10
0.0
 20
0.0
 30
0.0
  0
VERTEX
  5
1AD
100
AcDbEntity
  8
0
  6
Continuous
100
AcDbVertex
100
AcDb2dVertex
 10
8686.194044
 20
608.248345
 30
0.0
  0
VERTEX
  5
1AE
100
AcDbEntity
  8
0
  6
Continuous
100
AcDbVertex
100
AcDb2dVertex
 10
8686.194044
 20
608.693237
 30
0.0
  0
VERTEX
  5
1AF
100
AcDbEntity
  8
0
  6
Continuous
100
AcDbVertex
100
AcDb2dVertex
 10
8686.194044
 20
609.866134
 30
0.0
  0
VERTEX
  5
1B0
100
AcDbEntity
  8
0
  6
Continuous
100
AcDbVertex
100
AcDb2dVertex
 10
8686.194044
 20
611.524368
 30
0.0
  0
SEQEND
  5
1B1
100
AcDbEntity
  8
0
  6
Continuous
  0
POLYLINE
  5
1B2
100
AcDbEntity
  8
0
  6
Continuous
100
AcDb2dPolyline
 66
     1
 10
0.0
 20
0.0
 30
0.0
  0
VERTEX
  5
1B3
100
AcDbEntity
  8
0
  6
Continuous
100
AcDbVertex
100
AcDb2dVertex
 10
8686.194044
 20
611.524368
 30
0.0
  0
VERTEX
  5
1B4
100
AcDbEntity
  8
0
  6
Continuous
100
AcDbVertex
100
AcDb2dVertex
 10
8685.830041
 20
611.524368
 30
0.0
  0
VERTEX
  5
1B5
100
AcDbEntity
  8
0
  6
Continuous
100
AcDbVertex
100
AcDb2dVertex
 10
8685.466039
 20
611.524368
 30
0.0
  0
VERTEX
  5
1B6
100
AcDbEntity
  8
0
  6
Continuous
100
AcDbVertex
100
AcDb2dVertex
 10
8685.102036
 20
611.524368
 30
0.0
  0
SEQEND
  5
1B7
100
AcDbEntity
  8
0
  6
Continuous
  0
POLYLINE
  5
1B8
100
AcDbEntity
  8
0
  6
Continuous
100
AcDb2dPolyline
 66
     1
 10
0.0
 20
0.0
 30
0.0
  0
VERTEX
  5
1B9
100
AcDbEntity
  8
0
  6
Continuous
100
AcDbVertex
100
AcDb2dVertex
 10
8685.102036
 20
611.524368
 30
0.0
  0
VERTEX
  5
1BA
100
AcDbEntity
  8
0
  6
Continuous
100
AcDbVertex
100
AcDb2dVertex
 10
8683.606213
 20
618.286854
 30
0.0
  0
VERTEX
  5
1BB
100
AcDbEntity
  8
0
  6
Continuous
100
AcDbVertex
100
AcDb2dVertex
 10
8681.871513
 20
626.038972
 30
0.0
  0
VERTEX
  5
1BC
100
AcDbEntity
  8
0
  6
Continuous
100
AcDbVertex
100
AcDb2dVertex
 10
8679.932062
 20
634.814847
 30
0.0
  0
VERTEX
  5
1BD
100
AcDbEntity
  8
0
  6
Continuous
100
AcDbVertex
100
AcDb2dVertex
 10
8677.821984
 20
644.648605
 30
0.0
  0
SEQEND
  5
1BE
100
AcDbEntity
  8
0
  6
Continuous
  0
POLYLINE
  5
1BF
100
AcDbEntity
  8
0
  6
Continuous
100
AcDb2dPolyline
 66
     1
 10
0.0
 20
0.0
 30
0.0
  0
VERTEX
  5
1C0
100
AcDbEntity
  8
0
  6
Continuous
100
AcDbVertex
100
AcDb2dVertex
 10
8677.821984
 20
644.648605
 30
0.0
  0
VERTEX
  5
1C1
100
AcDbEntity
  8
0
  6
Continuous
100
AcDbVertex
100
AcDb2dVertex
 10
8677.579316
 20
645.983281
 30
0.0
  0
VERTEX
  5
1C2
100
AcDbEntity
  8
0
  6
Continuous
100
AcDbVertex
100
AcDb2dVertex
 10
8676.85131
 20
648.531299
 30
0.0
  0
VERTEX
  5
1C3
100
AcDbEntity
  8
0
  6
Continuous
100
AcDbVertex
100
AcDb2dVertex
 10
8675.637968
 20
652.292659
 30
0.0
  0
SEQEND
  5
1C4
100
AcDbEntity
  8
0
  6
Continuous
  0
POLYLINE
  5
1C5
100
AcDbEntity
  8
0
  6
Continuous
100
AcDb2dPolyline
 66
     1
 10
0.0
 20
0.0
 30
0.0
  0
VERTEX
  5
1C6
100
AcDbEntity
  8
0
  6
Continuous
100
AcDbVertex
100
AcDb2dVertex
 10
8675.637968
 20
652.292659
 30
0.0
  0
VERTEX
  5
1C7
100
AcDbEntity
  8
0
  6
Continuous
100
AcDbVertex
100
AcDb2dVertex
 10
8674.936926
 20
655.568683
 30
0.0
  0
VERTEX
  5
1C8
100
AcDbEntity
  8
0
  6
Continuous
100
AcDbVertex
100
AcDb2dVertex
 10
8674.397663
 20
658.116701
 30
0.0
  0
VERTEX
  5
1C9
100
AcDbEntity
  8
0
  6
Continuous
100
AcDbVertex
100
AcDb2dVertex
 10
8674.181958
 20
659.936714
 30
0.0
  0
SEQEND
  5
1CA
100
AcDbEntity
  8
0
  6
Continuous
  0
POLYLINE
  5
1CB
100
AcDbEntity
  8
0
  6
Continuous
100
AcDb2dPolyline
 66
     1
 10
0.0
 20
0.0
 30
0.0
  0
VERTEX
  5
1CC
100
AcDbEntity
  8
0
  6
Continuous
100
AcDbVertex
100
AcDb2dVertex
 10
8674.181958
 20
659.936714
 30
0.0
  0
VERTEX
  5
1CD
100
AcDbEntity
  8
0
  6
Continuous
100
AcDbVertex
100
AcDb2dVertex
 10
8674.411145
 20
660.651237
 30
0.0
  0
VERTEX
  5
1CE
100
AcDbEntity
  8
0
  6
Continuous
100
AcDbVertex
100
AcDb2dVertex
 10
8675.044779
 20
661.284872
 30
0.0
  0
VERTEX
  5
1CF
100
AcDbEntity
  8
0
  6
Continuous
100
AcDbVertex
100
AcDb2dVertex
 10
8676.001971
 20
661.756727
 30
0.0
  0
SEQEND
  5
1D0
100
AcDbEntity
  8
0
  6
Continuous
  0
POLYLINE
  5
1D1
100
AcDbEntity
  8
0
  6
Continuous
100
AcDb2dPolyline
 66
     1
 10
0.0
 20
0.0
 30
0.0
  0
VERTEX
  5
1D2
100
AcDbEntity
  8
0
  6
Continuous
100
AcDbVertex
100
AcDb2dVertex
 10
8676.001971
 20
661.756727
 30
0.0
  0
VERTEX
  5
1D3
100
AcDbEntity
  8
0
  6
Continuous
100
AcDbVertex
100
AcDb2dVertex
 10
8676.325529
 20
662.120729
 30
0.0
  0
VERTEX
  5
1D4
100
AcDbEntity
  8
0
  6
Continuous
100
AcDbVertex
100
AcDb2dVertex
 10
8677.134424
 20
662.484732
 30
0.0
  0
VERTEX
  5
1D5
100
AcDbEntity
  8
0
  6
Continuous
100
AcDbVertex
100
AcDb2dVertex
 10
8678.185987
 20
662.848735
 30
0.0
  0
SEQEND
  5
1D6
100
AcDbEntity
  8
0
  6
Continuous
  0
POLYLINE
  5
1D7
100
AcDbEntity
  8
0
  6
Continuous
100
AcDb2dPolyline
 66
     1
 10
0.0
 20
0.0
 30
0.0
  0
VERTEX
  5
1D8
100
AcDbEntity
  8
0
  6
Continuous
100
AcDbVertex
100
AcDb2dVertex
 10
8678.185987
 20
662.848735
 30
0.0
  0
VERTEX
  5
1D9
100
AcDbEntity
  8
0
  6
Continuous
100
AcDbVertex
100
AcDb2dVertex
 10
8680.491336
 20
663.603703
 30
0.0
  0
VERTEX
  5
1DA
100
AcDbEntity
  8
0
  6
Continuous
100
AcDbVertex
100
AcDb2dVertex
 10
8685.22337
 20
665.248455
 30
0.0
  0
VERTEX
  5
1DB
100
AcDbEntity
  8
0
  6
Continuous
100
AcDbVertex
100
AcDb2dVertex
 10
8692.382088
 20
667.944771
 30
0.0
  0
SEQEND
  5
1DC
100
AcDbEntity
  8
0
  6
Continuous
  0
POLYLINE
  5
1DD
100
AcDbEntity
  8
0
  6
Continuous
100
AcDb2dPolyline
 66
     1
 10
0.0
 20
0.0
 30
0.0
  0
VERTEX
  5
1DE
100
AcDbEntity
  8
0
  6
Continuous
100
AcDbVertex
100
AcDb2dVertex
 10
8692.382088
 20
667.944771
 30
0.0
  0
VERTEX
  5
1DF
100
AcDbEntity
  8
0
  6
Continuous
100
AcDbVertex
100
AcDb2dVertex
 10
8698.731911
 20
670.277084
 30
0.0
  0
VERTEX
  5
1E0
100
AcDbEntity
  8
0
  6
Continuous
100
AcDbVertex
100
AcDb2dVertex
 10
8702.65505
 20
671.557834
 30
0.0
  0
VERTEX
  5
1E1
100
AcDbEntity
  8
0
  6
Continuous
100
AcDbVertex
100
AcDb2dVertex
 10
8704.394174
 20
671.9488
 30
0.0
  0
SEQEND
  5
1E2
100
AcDbEntity
  8
0
  6
Continuous
  0
POLYLINE
  5
1E3
100
AcDbEntity
  8
0
  6
Continuous
100
AcDb2dPolyline
 66
     1
 10
0.0
 20
0.0
 30
0.0
  0
VERTEX
  5
1E4
100
AcDbEntity
  8
0
  6
Continuous
100
AcDbVertex
100
AcDb2dVertex
 10
8704.394174
 20
671.9488
 30
0.0
  0
VERTEX
  5
1E5
100
AcDbEntity
  8
0
  6
Continuous
100
AcDbVertex
100
AcDb2dVertex
 10
8704.852547
 20
671.840947
 30
0.0
  0
VERTEX
  5
1E6
100
AcDbEntity
  8
0
  6
Continuous
100
AcDbVertex
100
AcDb2dVertex
 10
8705.391811
 20
671.571315
 30
0.0
  0
VERTEX
  5
1E7
100
AcDbEntity
  8
0
  6
Continuous
100
AcDbVertex
100
AcDb2dVertex
 10
8705.850184
 20
671.220794
 30
0.0
  0
SEQEND
  5
1E8
100
AcDbEntity
  8
0
  6
Continuous
  0
POLYLINE
  5
1E9
100
AcDbEntity
  8
0
  6
Continuous
100
AcDb2dPolyline
 66
     1
 10
0.0
 20
0.0
 30
0.0
  0
VERTEX
  5
1EA
100
AcDbEntity
  8
0
  6
Continuous
100
AcDbVertex
100
AcDb2dVertex
 10
8705.850184
 20
671.220794
 30
0.0
  0
VERTEX
  5
1EB
100
AcDbEntity
  8
0
  6
Continuous
100
AcDbVertex
100
AcDb2dVertex
 10
8706.106334
 20
670.600642
 30
0.0
  0
VERTEX
  5
1EC
100
AcDbEntity
  8
0
  6
Continuous
100
AcDbVertex
100
AcDb2dVertex
 10
8706.200705
 20
670.142268
 30
0.0
  0
VERTEX
  5
1ED
100
AcDbEntity
  8
0
  6
Continuous
100
AcDbVertex
100
AcDb2dVertex
 10
8706.214187
 20
669.764784
 30
0.0
  0
SEQEND
  5
1EE
100
AcDbEntity
  8
0
  6
Continuous
  0
POLYLINE
  5
1EF
100
AcDbEntity
  8
0
  6
Continuous
100
AcDb2dPolyline
 66
     1
 10
0.0
 20
0.0
 30
0.0
  0
VERTEX
  5
1F0
100
AcDbEntity
  8
0
  6
Continuous
100
AcDbVertex
100
AcDb2dVertex
 10
8706.214187
 20
669.764784
 30
0.0
  0
VERTEX
  5
1F1
100
AcDbEntity
  8
0
  6
Continuous
100
AcDbVertex
100
AcDb2dVertex
 10
8704.52899
 20
661.621911
 30
0.0
  0
VERTEX
  5
1F2
100
AcDbEntity
  8
0
  6
Continuous
100
AcDbVertex
100
AcDb2dVertex
 10
8703.16735
 20
651.69947
 30
0.0
  0
VERTEX
  5
1F3
100
AcDbEntity
  8
0
  6
Continuous
100
AcDbVertex
100
AcDb2dVertex
 10
8702.210158
 20
639.916571
 30
0.0
  0
SEQEND
  5
1F4
100
AcDbEntity
  8
0
  6
Continuous
  0
POLYLINE
  5
1F5
100
AcDbEntity
  8
0
  6
Continuous
100
AcDb2dPolyline
 66
     1
 10
0.0
 20
0.0
 30
0.0
  0
VERTEX
  5
1F6
100
AcDbEntity
  8
0
  6
Continuous
100
AcDbVertex
100
AcDb2dVertex
 10
8702.210158
 20
639.916571
 30
0.0
  0
VERTEX
  5
1F7
100
AcDbEntity
  8
0
  6
Continuous
100
AcDbVertex
100
AcDb2dVertex
 10
8700.983335
 20
627.041664
 30
0.0
  0
VERTEX
  5
1F8
100
AcDbEntity
  8
0
  6
Continuous
100
AcDbVertex
100
AcDb2dVertex
 10
8700.160958
 20
618.211231
 30
0.0
  0
VERTEX
  5
1F9
100
AcDbEntity
  8
0
  6
Continuous
100
AcDbVertex
100
AcDb2dVertex
 10
8699.66214
 20
613.344381
 30
0.0
  0
SEQEND
  5
1FA
100
AcDbEntity
  8
0
  6
Continuous
  0
POLYLINE
  5
1FB
100
AcDbEntity
  8
0
  6
Continuous
100
AcDb2dPolyline
 66
     1
 10
0.0
 20
0.0
 30
0.0
  0
VERTEX
  5
1FC
100
AcDbEntity
  8
0
  6
Continuous
100
AcDbVertex
100
AcDb2dVertex
 10
8699.66214
 20
613.344381
 30
0.0
  0
VERTEX
  5
1FD
100
AcDbEntity
  8
0
  6
Continuous
100
AcDbVertex
100
AcDb2dVertex
 10
8699.298137
 20
613.088231
 30
0.0
  0
VERTEX
  5
1FE
100
AcDbEntity
  8
0
  6
Continuous
100
AcDbVertex
100
AcDb2dVertex
 10
8698.934135
 20
612.99386
 30
0.0
  0
VERTEX
  5
1FF
100
AcDbEntity
  8
0
  6
Continuous
100
AcDbVertex
100
AcDb2dVertex
 10
8698.570132
 20
612.980378
 30
0.0
  0
SEQEND
  5
200
100
AcDbEntity
  8
0
  6
Continuous
  0
POLYLINE
  5
201
100
AcDbEntity
  8
0
  6
Continuous
100
AcDb2dPolyline
 66
     1
 10
0.0
 20
0.0
 30
0.0
  0
VERTEX
  5
202
100
AcDbEntity
  8
0
  6
Continuous
100
AcDbVertex
100
AcDb2dVertex
 10
8698.570132
 20
612.980378
 30
0.0
  0
VERTEX
  5
203
100
AcDbEntity
  8
0
  6
Continuous
100
AcDbVertex
100
AcDb2dVertex
 10
8698.570132
 20
610.782881
 30
0.0
  0
VERTEX
  5
204
100
AcDbEntity
  8
0
  6
Continuous
100
AcDbVertex
100
AcDb2dVertex
 10
8698.570132
 20
608.989831
 30
0.0
  0
VERTEX
  5
205
100
AcDbEntity
  8
0
  6
Continuous
100
AcDbVertex
100
AcDb2dVertex
 10
8698.570132
 20
608.248345
 30
0.0
  0
SEQEND
  5
206
100
AcDbEntity
  8
0
  6
Continuous
  0
POLYLINE
  5
207
100
AcDbEntity
  8
0
  6
Continuous
100
AcDb2dPolyline
 66
     1
 10
0.0
 20
0.0
 30
0.0
  0
VERTEX
  5
208
100
AcDbEntity
  8
0
  6
Continuous
100
AcDbVertex
100
AcDb2dVertex
 10
8612.665519
 20
608.248345
 30
0.0
  0
VERTEX
  5
209
100
AcDbEntity
  8
0
  6
Continuous
100
AcDbVertex
100
AcDb2dVertex
 10
8612.665519
 20
611.160365
 30
0.0
  0
VERTEX
  5
20A
100
AcDbEntity
  8
0
  6
Continuous
100
AcDbVertex
100
AcDb2dVertex
 10
8607.933485
 20
611.524368
 30
0.0
  0
VERTEX
  5
20B
100
AcDbEntity
  8
0
  6
Continuous
100
AcDbVertex
100
AcDb2dVertex
 10
8609.389495
 20
628.996493
 30
0.0
  0
VERTEX
  5
20C
100
AcDbEntity
  8
0
  6
Continuous
100
AcDbVertex
100
AcDb2dVertex
 10
8581.725298
 20
634.092529
 30
0.0
  0
VERTEX
  5
20D
100
AcDbEntity
  8
0
  6
Continuous
100
AcDbVertex
100
AcDb2dVertex
 10
8578.813277
 20
611.888371
 30
0.0
  0
VERTEX
  5
20E
100
AcDbEntity
  8
0
  6
Continuous
100
AcDbVertex
100
AcDb2dVertex
 10
8572.989235
 20
611.888371
 30
0.0
  0
VERTEX
  5
20F
100
AcDbEntity
  8
0
  6
Continuous
100
AcDbVertex
100
AcDb2dVertex
 10
8563.525168
 20
613.344381
 30
0.0
  0
VERTEX
  5
210
100
AcDbEntity
  8
0
  6
Continuous
100
AcDbVertex
100
AcDb2dVertex
 10
8552.969092
 20
661.392724
 30
0.0
  0
VERTEX
  5
211
100
AcDbEntity
  8
0
  6
Continuous
100
AcDbVertex
100
AcDb2dVertex
 10
8582.817305
 20
667.944771
 30
0.0
  0
VERTEX
  5
212
100
AcDbEntity
  8
0
  6
Continuous
100
AcDbVertex
100
AcDb2dVertex
 10
8584.637318
 20
667.580768
 30
0.0
  0
VERTEX
  5
213
100
AcDbEntity
  8
0
  6
Continuous
100
AcDbVertex
100
AcDb2dVertex
 10
8584.273316
 20
659.572711
 30
0.0
  0
VERTEX
  5
214
100
AcDbEntity
  8
0
  6
Continuous
100
AcDbVertex
100
AcDb2dVertex
 10
8582.453303
 20
644.648605
 30
0.0
  0
VERTEX
  5
215
100
AcDbEntity
  8
0
  6
Continuous
100
AcDbVertex
100
AcDb2dVertex
 10
8585.001321
 20
643.920599
 30
0.0
  0
VERTEX
  5
216
100
AcDbEntity
  8
0
  6
Continuous
100
AcDbVertex
100
AcDb2dVertex
 10
8604.657461
 20
645.740612
 30
0.0
  0
VERTEX
  5
217
100
AcDbEntity
  8
0
  6
Continuous
100
AcDbVertex
100
AcDb2dVertex
 10
8610.1175
 20
647.196623
 30
0.0
  0
VERTEX
  5
218
100
AcDbEntity
  8
0
  6
Continuous
100
AcDbVertex
100
AcDb2dVertex
 10
8611.573511
 20
663.940742
 30
0.0
  0
VERTEX
  5
219
100
AcDbEntity
  8
0
  6
Continuous
100
AcDbVertex
100
AcDb2dVertex
 10
8644.697747
 20
669.036779
 30
0.0
  0
VERTEX
  5
21A
100
AcDbEntity
  8
0
  6
Continuous
100
AcDbVertex
100
AcDb2dVertex
 10
8646.881763
 20
667.216766
 30
0.0
  0
VERTEX
  5
21B
100
AcDbEntity
  8
0
  6
Continuous
100
AcDbVertex
100
AcDb2dVertex
 10
8628.681633
 20
611.524368
 30
0.0
  0
VERTEX
  5
21C
100
AcDbEntity
  8
0
  6
Continuous
100
AcDbVertex
100
AcDb2dVertex
 10
8625.041607
 20
611.160365
 30
0.0
  0
VERTEX
  5
21D
100
AcDbEntity
  8
0
  6
Continuous
100
AcDbVertex
100
AcDb2dVertex
 10
8625.041607
 20
608.248345
 30
0.0
  0
SEQEND
  5
21E
100
AcDbEntity
  8
0
  6
Continuous
  0
POLYLINE
  5
21F
100
AcDbEntity
  8
0
  6
Continuous
100
AcDb2dPolyline
 66
     1
 10
0.0
 20
0.0
 30
0.0
  0
VERTEX
  5
220
100
AcDbEntity
  8
0
  6
Continuous
100
AcDbVertex
100
AcDb2dVertex
 10
8489.63264
 20
608.248345
 30
0.0
  0
VERTEX
  5
221
100
AcDbEntity
  8
0
  6
Continuous
100
AcDbVertex
100
AcDb2dVertex
 10
8489.63264
 20
611.524368
 30
0.0
  0
VERTEX
  5
222
100
AcDbEntity
  8
0
  6
Continuous
100
AcDbVertex
100
AcDb2dVertex
 10
8465.608468
 20
611.160365
 30
0.0
  0
VERTEX
  5
223
100
AcDbEntity
  8
0
  6
Continuous
100
AcDbVertex
100
AcDb2dVertex
 10
8463.424453
 20
613.708384
 30
0.0
  0
VERTEX
  5
224
100
AcDbEntity
  8
0
  6
Continuous
100
AcDbVertex
100
AcDb2dVertex
 10
8465.608468
 20
670.128787
 30
0.0
  0
VERTEX
  5
225
100
AcDbEntity
  8
0
  6
Continuous
100
AcDbVertex
100
AcDb2dVertex
 10
8468.520489
 20
670.856792
 30
0.0
  0
VERTEX
  5
226
100
AcDbEntity
  8
0
  6
Continuous
100
AcDbVertex
100
AcDb2dVertex
 10
8516.20483
 20
662.120729
 30
0.0
  0
VERTEX
  5
227
100
AcDbEntity
  8
0
  6
Continuous
100
AcDbVertex
100
AcDb2dVertex
 10
8522.756876
 20
641.372581
 30
0.0
  0
VERTEX
  5
228
100
AcDbEntity
  8
0
  6
Continuous
100
AcDbVertex
100
AcDb2dVertex
 10
8522.392874
 20
640.644576
 30
0.0
  0
VERTEX
  5
229
100
AcDbEntity
  8
0
  6
Continuous
100
AcDbVertex
100
AcDb2dVertex
 10
8504.192744
 20
643.192594
 30
0.0
  0
VERTEX
  5
22A
100
AcDbEntity
  8
0
  6
Continuous
100
AcDbVertex
100
AcDb2dVertex
 10
8502.372731
 20
645.37661
 30
0.0
  0
VERTEX
  5
22B
100
AcDbEntity
  8
0
  6
Continuous
100
AcDbVertex
100
AcDb2dVertex
 10
8504.556746
 20
657.024693
 30
0.0
  0
VERTEX
  5
22C
100
AcDbEntity
  8
0
  6
Continuous
100
AcDbVertex
100
AcDb2dVertex
 10
8502.736733
 20
657.752698
 30
0.0
  0
VERTEX
  5
22D
100
AcDbEntity
  8
0
  6
Continuous
100
AcDbVertex
100
AcDb2dVertex
 10
8487.448624
 20
657.388696
 30
0.0
  0
VERTEX
  5
22E
100
AcDbEntity
  8
0
  6
Continuous
100
AcDbVertex
100
AcDb2dVertex
 10
8486.720619
 20
656.66069
 30
0.0
  0
VERTEX
  5
22F
100
AcDbEntity
  8
0
  6
Continuous
100
AcDbVertex
100
AcDb2dVertex
 10
8494.728676
 20
621.716441
 30
0.0
  0
VERTEX
  5
230
100
AcDbEntity
  8
0
  6
Continuous
100
AcDbVertex
100
AcDb2dVertex
 10
8508.924778
 20
619.532425
 30
0.0
  0
VERTEX
  5
231
100
AcDbEntity
  8
0
  6
Continuous
100
AcDbVertex
100
AcDb2dVertex
 10
8504.556746
 20
625.720469
 30
0.0
  0
VERTEX
  5
232
100
AcDbEntity
  8
0
  6
Continuous
100
AcDbVertex
100
AcDb2dVertex
 10
8499.096707
 20
626.812477
 30
0.0
  0
VERTEX
  5
233
100
AcDbEntity
  8
0
  6
Continuous
100
AcDbVertex
100
AcDb2dVertex
 10
8499.096707
 20
635.54854
 30
0.0
  0
VERTEX
  5
234
100
AcDbEntity
  8
0
  6
Continuous
100
AcDbVertex
100
AcDb2dVertex
 10
8530.036928
 20
638.46056
 30
0.0
  0
VERTEX
  5
235
100
AcDbEntity
  8
0
  6
Continuous
100
AcDbVertex
100
AcDb2dVertex
 10
8530.764934
 20
637.00455
 30
0.0
  0
VERTEX
  5
236
100
AcDbEntity
  8
0
  6
Continuous
100
AcDbVertex
100
AcDb2dVertex
 10
8531.128936
 20
623.536454
 30
0.0
  0
VERTEX
  5
237
100
AcDbEntity
  8
0
  6
Continuous
100
AcDbVertex
100
AcDb2dVertex
 10
8526.0329
 20
624.264459
 30
0.0
  0
VERTEX
  5
238
100
AcDbEntity
  8
0
  6
Continuous
100
AcDbVertex
100
AcDb2dVertex
 10
8525.304895
 20
613.708384
 30
0.0
  0
VERTEX
  5
239
100
AcDbEntity
  8
0
  6
Continuous
100
AcDbVertex
100
AcDb2dVertex
 10
8502.008728
 20
612.252373
 30
0.0
  0
VERTEX
  5
23A
100
AcDbEntity
  8
0
  6
Continuous
100
AcDbVertex
100
AcDb2dVertex
 10
8502.008728
 20
608.248345
 30
0.0
  0
SEQEND
  5
23B
100
AcDbEntity
  8
0
  6
Continuous
  0
POLYLINE
  5
23C
100
AcDbEntity
  8
0
  6
Continuous
100
AcDb2dPolyline
 66
     1
 10
0.0
 20
0.0
 30
0.0
  0
VERTEX
  5
23D
100
AcDbEntity
  8
0
  6
Continuous
100
AcDbVertex
100
AcDb2dVertex
 10
8389.895927
 20
608.248345
 30
0.0
  0
VERTEX
  5
23E
100
AcDbEntity
  8
0
  6
Continuous
100
AcDbVertex
100
AcDb2dVertex
 10
8389.895927
 20
612.980378
 30
0.0
  0
VERTEX
  5
23F
100
AcDbEntity
  8
0
  6
Continuous
100
AcDbVertex
100
AcDb2dVertex
 10
8385.163894
 20
612.980378
 30
0.0
  0
VERTEX
  5
240
100
AcDbEntity
  8
0
  6
Continuous
100
AcDbVertex
100
AcDb2dVertex
 10
8383.343881
 20
614.072386
 30
0.0
  0
VERTEX
  5
241
100
AcDbEntity
  8
0
  6
Continuous
100
AcDbVertex
100
AcDb2dVertex
 10
8382.979878
 20
618.076415
 30
0.0
  0
VERTEX
  5
242
100
AcDbEntity
  8
0
  6
Continuous
100
AcDbVertex
100
AcDb2dVertex
 10
8387.347909
 20
663.940742
 30
0.0
  0
VERTEX
  5
243
100
AcDbEntity
  8
0
  6
Continuous
100
AcDbVertex
100
AcDb2dVertex
 10
8388.80392
 20
666.124758
 30
0.0
  0
VERTEX
  5
244
100
AcDbEntity
  8
0
  6
Continuous
100
AcDbVertex
100
AcDb2dVertex
 10
8433.212237
 20
671.220794
 30
0.0
  0
VERTEX
  5
245
100
AcDbEntity
  8
0
  6
Continuous
100
AcDbVertex
100
AcDb2dVertex
 10
8435.03225
 20
668.672776
 30
0.0
  0
VERTEX
  5
246
100
AcDbEntity
  8
0
  6
Continuous
100
AcDbVertex
100
AcDb2dVertex
 10
8428.844206
 20
656.296688
 30
0.0
  0
VERTEX
  5
247
100
AcDbEntity
  8
0
  6
Continuous
100
AcDbVertex
100
AcDb2dVertex
 10
8420.836148
 20
656.66069
 30
0.0
  0
VERTEX
  5
248
100
AcDbEntity
  8
0
  6
Continuous
100
AcDbVertex
100
AcDb2dVertex
 10
8405.184037
 20
657.752698
 30
0.0
  0
VERTEX
  5
249
100
AcDbEntity
  8
0
  6
Continuous
100
AcDbVertex
100
AcDb2dVertex
 10
8403.728026
 20
655.20468
 30
0.0
  0
VERTEX
  5
24A
100
AcDbEntity
  8
0
  6
Continuous
100
AcDbVertex
100
AcDb2dVertex
 10
8404.456031
 20
647.924628
 30
0.0
  0
VERTEX
  5
24B
100
AcDbEntity
  8
0
  6
Continuous
100
AcDbVertex
100
AcDb2dVertex
 10
8419.744141
 20
646.468618
 30
0.0
  0
VERTEX
  5
24C
100
AcDbEntity
  8
0
  6
Continuous
100
AcDbVertex
100
AcDb2dVertex
 10
8420.836148
 20
642.100586
 30
0.0
  0
VERTEX
  5
24D
100
AcDbEntity
  8
0
  6
Continuous
100
AcDbVertex
100
AcDb2dVertex
 10
8419.016135
 20
635.184537
 30
0.0
  0
VERTEX
  5
24E
100
AcDbEntity
  8
0
  6
Continuous
100
AcDbVertex
100
AcDb2dVertex
 10
8417.196122
 20
634.456532
 30
0.0
  0
VERTEX
  5
24F
100
AcDbEntity
  8
0
  6
Continuous
100
AcDbVertex
100
AcDb2dVertex
 10
8406.276044
 20
638.824563
 30
0.0
  0
VERTEX
  5
250
100
AcDbEntity
  8
0
  6
Continuous
100
AcDbVertex
100
AcDb2dVertex
 10
8407.00405
 20
625.356467
 30
0.0
  0
VERTEX
  5
251
100
AcDbEntity
  8
0
  6
Continuous
100
AcDbVertex
100
AcDb2dVertex
 10
8408.824063
 20
612.980378
 30
0.0
  0
VERTEX
  5
252
100
AcDbEntity
  8
0
  6
Continuous
100
AcDbVertex
100
AcDb2dVertex
 10
8402.272016
 20
612.980378
 30
0.0
  0
VERTEX
  5
253
100
AcDbEntity
  8
0
  6
Continuous
100
AcDbVertex
100
AcDb2dVertex
 10
8402.272016
 20
608.248345
 30
0.0
  0
SEQEND
  5
254
100
AcDbEntity
  8
0
  6
Continuous
  0
POLYLINE
  5
255
100
AcDbEntity
  8
0
  6
Continuous
100
AcDb2dPolyline
 66
     1
 10
0.0
 20
0.0
 30
0.0
  0
VERTEX
  5
256
100
AcDbEntity
  8
0
  6
Continuous
100
AcDbVertex
100
AcDb2dVertex
 10
8313.091379
 20
608.248345
 30
0.0
  0
VERTEX
  5
257
100
AcDbEntity
  8
0
  6
Continuous
100
AcDbVertex
100
AcDb2dVertex
 10
8313.091379
 20
612.252373
 30
0.0
  0
VERTEX
  5
258
100
AcDbEntity
  8
0
  6
Continuous
100
AcDbVertex
100
AcDb2dVertex
 10
8294.527246
 20
613.344381
 30
0.0
  0
VERTEX
  5
259
100
AcDbEntity
  8
0
  6
Continuous
100
AcDbVertex
100
AcDb2dVertex
 10
8292.343231
 20
615.528397
 30
0.0
  0
VERTEX
  5
25A
100
AcDbEntity
  8
0
  6
Continuous
100
AcDbVertex
100
AcDb2dVertex
 10
8302.899306
 20
661.392724
 30
0.0
  0
VERTEX
  5
25B
100
AcDbEntity
  8
0
  6
Continuous
100
AcDbVertex
100
AcDb2dVertex
 10
8306.175329
 20
665.396753
 30
0.0
  0
VERTEX
  5
25C
100
AcDbEntity
  8
0
  6
Continuous
100
AcDbVertex
100
AcDb2dVertex
 10
8353.85967
 20
670.128787
 30
0.0
  0
VERTEX
  5
25D
100
AcDbEntity
  8
0
  6
Continuous
100
AcDbVertex
100
AcDb2dVertex
 10
8355.679683
 20
669.400781
 30
0.0
  0
VERTEX
  5
25E
100
AcDbEntity
  8
0
  6
Continuous
100
AcDbVertex
100
AcDb2dVertex
 10
8356.043686
 20
667.944771
 30
0.0
  0
VERTEX
  5
25F
100
AcDbEntity
  8
0
  6
Continuous
100
AcDbVertex
100
AcDb2dVertex
 10
8347.671626
 20
655.568683
 30
0.0
  0
VERTEX
  5
260
100
AcDbEntity
  8
0
  6
Continuous
100
AcDbVertex
100
AcDb2dVertex
 10
8321.099436
 20
656.66069
 30
0.0
  0
VERTEX
  5
261
100
AcDbEntity
  8
0
  6
Continuous
100
AcDbVertex
100
AcDb2dVertex
 10
8320.007428
 20
652.292659
 30
0.0
  0
VERTEX
  5
262
100
AcDbEntity
  8
0
  6
Continuous
100
AcDbVertex
100
AcDb2dVertex
 10
8320.007428
 20
647.196623
 30
0.0
  0
VERTEX
  5
263
100
AcDbEntity
  8
0
  6
Continuous
100
AcDbVertex
100
AcDb2dVertex
 10
8337.479553
 20
645.37661
 30
0.0
  0
VERTEX
  5
264
100
AcDbEntity
  8
0
  6
Continuous
100
AcDbVertex
100
AcDb2dVertex
 10
8336.387545
 20
638.46056
 30
0.0
  0
VERTEX
  5
265
100
AcDbEntity
  8
0
  6
Continuous
100
AcDbVertex
100
AcDb2dVertex
 10
8332.747519
 20
634.092529
 30
0.0
  0
VERTEX
  5
266
100
AcDbEntity
  8
0
  6
Continuous
100
AcDbVertex
100
AcDb2dVertex
 10
8320.007428
 20
638.096558
 30
0.0
  0
VERTEX
  5
267
100
AcDbEntity
  8
0
  6
Continuous
100
AcDbVertex
100
AcDb2dVertex
 10
8320.371431
 20
620.624433
 30
0.0
  0
VERTEX
  5
268
100
AcDbEntity
  8
0
  6
Continuous
100
AcDbVertex
100
AcDb2dVertex
 10
8349.491639
 20
630.088501
 30
0.0
  0
VERTEX
  5
269
100
AcDbEntity
  8
0
  6
Continuous
100
AcDbVertex
100
AcDb2dVertex
 10
8350.219644
 20
628.63249
 30
0.0
  0
VERTEX
  5
26A
100
AcDbEntity
  8
0
  6
Continuous
100
AcDbVertex
100
AcDb2dVertex
 10
8345.123608
 20
612.980378
 30
0.0
  0
VERTEX
  5
26B
100
AcDbEntity
  8
0
  6
Continuous
100
AcDbVertex
100
AcDb2dVertex
 10
8343.667597
 20
611.524368
 30
0.0
  0
VERTEX
  5
26C
100
AcDbEntity
  8
0
  6
Continuous
100
AcDbVertex
100
AcDb2dVertex
 10
8325.467467
 20
611.888371
 30
0.0
  0
VERTEX
  5
26D
100
AcDbEntity
  8
0
  6
Continuous
100
AcDbVertex
100
AcDb2dVertex
 10
8325.467467
 20
608.248345
 30
0.0
  0
SEQEND
  5
26E
100
AcDbEntity
  8
0
  6
Continuous
  0
POLYLINE
  5
26F
100
AcDbEntity
  8
0
  6
Continuous
100
AcDb2dPolyline
 66
     1
 10
0.0
 20
0.0
 30
0.0
  0
VERTEX
  5
270
100
AcDbEntity
  8
0
  6
Continuous
100
AcDbVertex
100
AcDb2dVertex
 10
8223.182737
 20
608.248345
 30
0.0
  0
VERTEX
  5
271
100
AcDbEntity
  8
0
  6
Continuous
100
AcDbVertex
100
AcDb2dVertex
 10
8223.182737
 20
612.980378
 30
0.0
  0
VERTEX
  5
272
100
AcDbEntity
  8
0
  6
Continuous
100
AcDbVertex
100
AcDb2dVertex
 10
8202.434588
 20
615.164394
 30
0.0
  0
VERTEX
  5
273
100
AcDbEntity
  8
0
  6
Continuous
100
AcDbVertex
100
AcDb2dVertex
 10
8200.614575
 20
615.892399
 30
0.0
  0
VERTEX
  5
274
100
AcDbEntity
  8
0
  6
Continuous
100
AcDbVertex
100
AcDb2dVertex
 10
8200.250573
 20
619.896428
 30
0.0
  0
VERTEX
  5
275
100
AcDbEntity
  8
0
  6
Continuous
100
AcDbVertex
100
AcDb2dVertex
 10
8207.894627
 20
651.928657
 30
0.0
  0
VERTEX
  5
276
100
AcDbEntity
  8
0
  6
Continuous
100
AcDbVertex
100
AcDb2dVertex
 10
8223.182737
 20
654.476675
 30
0.0
  0
VERTEX
  5
277
100
AcDbEntity
  8
0
  6
Continuous
100
AcDbVertex
100
AcDb2dVertex
 10
8224.274744
 20
649.380638
 30
0.0
  0
VERTEX
  5
278
100
AcDbEntity
  8
0
  6
Continuous
100
AcDbVertex
100
AcDb2dVertex
 10
8225.00275
 20
621.716441
 30
0.0
  0
VERTEX
  5
279
100
AcDbEntity
  8
0
  6
Continuous
100
AcDbVertex
100
AcDb2dVertex
 10
8237.014835
 20
621.716441
 30
0.0
  0
VERTEX
  5
27A
100
AcDbEntity
  8
0
  6
Continuous
100
AcDbVertex
100
AcDb2dVertex
 10
8240.290859
 20
661.756727
 30
0.0
  0
VERTEX
  5
27B
100
AcDbEntity
  8
0
  6
Continuous
100
AcDbVertex
100
AcDb2dVertex
 10
8239.562854
 20
663.212737
 30
0.0
  0
VERTEX
  5
27C
100
AcDbEntity
  8
0
  6
Continuous
100
AcDbVertex
100
AcDb2dVertex
 10
8200.250573
 20
656.296688
 30
0.0
  0
VERTEX
  5
27D
100
AcDbEntity
  8
0
  6
Continuous
100
AcDbVertex
100
AcDb2dVertex
 10
8199.88657
 20
658.480703
 30
0.0
  0
VERTEX
  5
27E
100
AcDbEntity
  8
0
  6
Continuous
100
AcDbVertex
100
AcDb2dVertex
 10
8202.434588
 20
666.124758
 30
0.0
  0
VERTEX
  5
27F
100
AcDbEntity
  8
0
  6
Continuous
100
AcDbVertex
100
AcDb2dVertex
 10
8235.558825
 20
670.856792
 30
0.0
  0
VERTEX
  5
280
100
AcDbEntity
  8
0
  6
Continuous
100
AcDbVertex
100
AcDb2dVertex
 10
8242.838877
 20
671.584797
 30
0.0
  0
VERTEX
  5
281
100
AcDbEntity
  8
0
  6
Continuous
100
AcDbVertex
100
AcDb2dVertex
 10
8259.218994
 20
658.480703
 30
0.0
  0
VERTEX
  5
282
100
AcDbEntity
  8
0
  6
Continuous
100
AcDbVertex
100
AcDb2dVertex
 10
8260.311002
 20
650.472646
 30
0.0
  0
VERTEX
  5
283
100
AcDbEntity
  8
0
  6
Continuous
100
AcDbVertex
100
AcDb2dVertex
 10
8261.40301
 20
626.084472
 30
0.0
  0
VERTEX
  5
284
100
AcDbEntity
  8
0
  6
Continuous
100
AcDbVertex
100
AcDb2dVertex
 10
8249.754926
 20
611.160365
 30
0.0
  0
VERTEX
  5
285
100
AcDbEntity
  8
0
  6
Continuous
100
AcDbVertex
100
AcDb2dVertex
 10
8235.558825
 20
611.888371
 30
0.0
  0
VERTEX
  5
286
100
AcDbEntity
  8
0
  6
Continuous
100
AcDbVertex
100
AcDb2dVertex
 10
8235.558825
 20
608.248345
 30
0.0
  0
SEQEND
  5
287
100
AcDbEntity
  8
0
  6
Continuous
  0
POLYLINE
  5
288
100
AcDbEntity
  8
0
  6
Continuous
100
AcDb2dPolyline
 66
     1
 10
0.0
 20
0.0
 30
0.0
  0
VERTEX
  5
289
100
AcDbEntity
  8
0
  6
Continuous
100
AcDbVertex
100
AcDb2dVertex
 10
8127.08605
 20
608.248345
 30
0.0
  0
VERTEX
  5
28A
100
AcDbEntity
  8
0
  6
Continuous
100
AcDbVertex
100
AcDb2dVertex
 10
8127.08605
 20
612.616376
 30
0.0
  0
VERTEX
  5
28B
100
AcDbEntity
  8
0
  6
Continuous
100
AcDbVertex
100
AcDb2dVertex
 10
8095.781827
 20
612.616376
 30
0.0
  0
VERTEX
  5
28C
100
AcDbEntity
  8
0
  6
Continuous
100
AcDbVertex
100
AcDb2dVertex
 10
8095.417824
 20
613.708384
 30
0.0
  0
VERTEX
  5
28D
100
AcDbEntity
  8
0
  6
Continuous
100
AcDbVertex
100
AcDb2dVertex
 10
8108.157915
 20
668.308774
 30
0.0
  0
VERTEX
  5
28E
100
AcDbEntity
  8
0
  6
Continuous
100
AcDbVertex
100
AcDb2dVertex
 10
8109.977928
 20
669.036779
 30
0.0
  0
VERTEX
  5
28F
100
AcDbEntity
  8
0
  6
Continuous
100
AcDbVertex
100
AcDb2dVertex
 10
8166.398331
 20
661.028722
 30
0.0
  0
VERTEX
  5
290
100
AcDbEntity
  8
0
  6
Continuous
100
AcDbVertex
100
AcDb2dVertex
 10
8171.130365
 20
641.736584
 30
0.0
  0
VERTEX
  5
291
100
AcDbEntity
  8
0
  6
Continuous
100
AcDbVertex
100
AcDb2dVertex
 10
8167.126336
 20
640.280573
 30
0.0
  0
VERTEX
  5
292
100
AcDbEntity
  8
0
  6
Continuous
100
AcDbVertex
100
AcDb2dVertex
 10
8147.106193
 20
644.284602
 30
0.0
  0
VERTEX
  5
293
100
AcDbEntity
  8
0
  6
Continuous
100
AcDbVertex
100
AcDb2dVertex
 10
8151.838227
 20
655.568683
 30
0.0
  0
VERTEX
  5
294
100
AcDbEntity
  8
0
  6
Continuous
100
AcDbVertex
100
AcDb2dVertex
 10
8151.474224
 20
656.66069
 30
0.0
  0
VERTEX
  5
295
100
AcDbEntity
  8
0
  6
Continuous
100
AcDbVertex
100
AcDb2dVertex
 10
8130.362074
 20
655.932685
 30
0.0
  0
VERTEX
  5
296
100
AcDbEntity
  8
0
  6
Continuous
100
AcDbVertex
100
AcDb2dVertex
 10
8130.726076
 20
655.932685
 30
0.0
  0
VERTEX
  5
297
100
AcDbEntity
  8
0
  6
Continuous
100
AcDbVertex
100
AcDb2dVertex
 10
8134.366102
 20
622.080443
 30
0.0
  0
VERTEX
  5
298
100
AcDbEntity
  8
0
  6
Continuous
100
AcDbVertex
100
AcDb2dVertex
 10
8150.746219
 20
620.26043
 30
0.0
  0
VERTEX
  5
299
100
AcDbEntity
  8
0
  6
Continuous
100
AcDbVertex
100
AcDb2dVertex
 10
8144.194172
 20
632.636519
 30
0.0
  0
VERTEX
  5
29A
100
AcDbEntity
  8
0
  6
Continuous
100
AcDbVertex
100
AcDb2dVertex
 10
8151.474224
 20
633.728527
 30
0.0
  0
VERTEX
  5
29B
100
AcDbEntity
  8
0
  6
Continuous
100
AcDbVertex
100
AcDb2dVertex
 10
8171.494367
 20
634.092529
 30
0.0
  0
VERTEX
  5
29C
100
AcDbEntity
  8
0
  6
Continuous
100
AcDbVertex
100
AcDb2dVertex
 10
8172.950378
 20
632.636519
 30
0.0
  0
VERTEX
  5
29D
100
AcDbEntity
  8
0
  6
Continuous
100
AcDbVertex
100
AcDb2dVertex
 10
8169.674354
 20
615.164394
 30
0.0
  0
VERTEX
  5
29E
100
AcDbEntity
  8
0
  6
Continuous
100
AcDbVertex
100
AcDb2dVertex
 10
8164.942321
 20
613.344381
 30
0.0
  0
VERTEX
  5
29F
100
AcDbEntity
  8
0
  6
Continuous
100
AcDbVertex
100
AcDb2dVertex
 10
8139.462139
 20
612.980378
 30
0.0
  0
VERTEX
  5
2A0
100
AcDbEntity
  8
0
  6
Continuous
100
AcDbVertex
100
AcDb2dVertex
 10
8139.462139
 20
608.248345
 30
0.0
  0
SEQEND
  5
2A1
100
AcDbEntity
  8
0
  6
Continuous
  0
POLYLINE
  5
2A2
100
AcDbEntity
  8
0
  6
Continuous
100
AcDb2dPolyline
 66
     1
 10
0.0
 20
0.0
 30
0.0
  0
VERTEX
  5
2A3
100
AcDbEntity
  8
0
  6
Continuous
100
AcDbVertex
100
AcDb2dVertex
 10
8016.065257
 20
608.248345
 30
0.0
  0
VERTEX
  5
2A4
100
AcDbEntity
  8
0
  6
Continuous
100
AcDbVertex
100
AcDb2dVertex
 10
8014.973249
 20
622.808449
 30
0.0
  0
VERTEX
  5
2A5
100
AcDbEntity
  8
0
  6
Continuous
100
AcDbVertex
100
AcDb2dVertex
 10
8034.993392
 20
626.448475
 30
0.0
  0
VERTEX
  5
2A6
100
AcDbEntity
  8
0
  6
Continuous
100
AcDbVertex
100
AcDb2dVertex
 10
8033.537382
 20
638.096558
 30
0.0
  0
VERTEX
  5
2A7
100
AcDbEntity
  8
0
  6
Continuous
100
AcDbVertex
100
AcDb2dVertex
 10
8032.445374
 20
638.824563
 30
0.0
  0
VERTEX
  5
2A8
100
AcDbEntity
  8
0
  6
Continuous
100
AcDbVertex
100
AcDb2dVertex
 10
8003.325166
 20
637.00455
 30
0.0
  0
VERTEX
  5
2A9
100
AcDbEntity
  8
0
  6
Continuous
100
AcDbVertex
100
AcDb2dVertex
 10
8010.605218
 20
614.800391
 30
0.0
  0
VERTEX
  5
2AA
100
AcDbEntity
  8
0
  6
Continuous
100
AcDbVertex
100
AcDb2dVertex
 10
8010.241216
 20
613.344381
 30
0.0
  0
VERTEX
  5
2AB
100
AcDbEntity
  8
0
  6
Continuous
100
AcDbVertex
100
AcDb2dVertex
 10
7980.393002
 20
614.072386
 30
0.0
  0
VERTEX
  5
2AC
100
AcDbEntity
  8
0
  6
Continuous
100
AcDbVertex
100
AcDb2dVertex
 10
7980.757005
 20
651.928657
 30
0.0
  0
VERTEX
  5
2AD
100
AcDbEntity
  8
0
  6
Continuous
100
AcDbVertex
100
AcDb2dVertex
 10
7996.773119
 20
653.74867
 30
0.0
  0
VERTEX
  5
2AE
100
AcDbEntity
  8
0
  6
Continuous
100
AcDbVertex
100
AcDb2dVertex
 10
7999.321138
 20
645.37661
 30
0.0
  0
VERTEX
  5
2AF
100
AcDbEntity
  8
0
  6
Continuous
100
AcDbVertex
100
AcDb2dVertex
 10
8023.709312
 20
647.196623
 30
0.0
  0
VERTEX
  5
2B0
100
AcDbEntity
  8
0
  6
Continuous
100
AcDbVertex
100
AcDb2dVertex
 10
8022.981307
 20
663.940742
 30
0.0
  0
VERTEX
  5
2B1
100
AcDbEntity
  8
0
  6
Continuous
100
AcDbVertex
100
AcDb2dVertex
 10
8017.157265
 20
663.940742
 30
0.0
  0
VERTEX
  5
2B2
100
AcDbEntity
  8
0
  6
Continuous
100
AcDbVertex
100
AcDb2dVertex
 10
7977.480982
 20
654.840677
 30
0.0
  0
VERTEX
  5
2B3
100
AcDbEntity
  8
0
  6
Continuous
100
AcDbVertex
100
AcDb2dVertex
 10
7975.660969
 20
657.752698
 30
0.0
  0
VERTEX
  5
2B4
100
AcDbEntity
  8
0
  6
Continuous
100
AcDbVertex
100
AcDb2dVertex
 10
7974.204958
 20
663.940742
 30
0.0
  0
VERTEX
  5
2B5
100
AcDbEntity
  8
0
  6
Continuous
100
AcDbVertex
100
AcDb2dVertex
 10
7975.660969
 20
666.124758
 30
0.0
  0
VERTEX
  5
2B6
100
AcDbEntity
  8
0
  6
Continuous
100
AcDbVertex
100
AcDb2dVertex
 10
8048.461489
 20
673.40481
 30
0.0
  0
VERTEX
  5
2B7
100
AcDbEntity
  8
0
  6
Continuous
100
AcDbVertex
100
AcDb2dVertex
 10
8049.553496
 20
672.312802
 30
0.0
  0
VERTEX
  5
2B8
100
AcDbEntity
  8
0
  6
Continuous
100
AcDbVertex
100
AcDb2dVertex
 10
8041.909442
 20
647.560625
 30
0.0
  0
VERTEX
  5
2B9
100
AcDbEntity
  8
0
  6
Continuous
100
AcDbVertex
100
AcDb2dVertex
 10
8063.385595
 20
649.380638
 30
0.0
  0
VERTEX
  5
2BA
100
AcDbEntity
  8
0
  6
Continuous
100
AcDbVertex
100
AcDb2dVertex
 10
8065.205608
 20
647.560625
 30
0.0
  0
VERTEX
  5
2BB
100
AcDbEntity
  8
0
  6
Continuous
100
AcDbVertex
100
AcDb2dVertex
 10
8051.009507
 20
610.43236
 30
0.0
  0
VERTEX
  5
2BC
100
AcDbEntity
  8
0
  6
Continuous
100
AcDbVertex
100
AcDb2dVertex
 10
8028.441346
 20
612.252373
 30
0.0
  0
VERTEX
  5
2BD
100
AcDbEntity
  8
0
  6
Continuous
100
AcDbVertex
100
AcDb2dVertex
 10
8028.441346
 20
608.248345
 30
0.0
  0
SEQEND
  5
2BE
100
AcDbEntity
  8
0
  6
Continuous
  0
POLYLINE
  5
2BF
100
AcDbEntity
  8
0
  6
Continuous
100
AcDb2dPolyline
 66
     1
 10
0.0
 20
0.0
 30
0.0
  0
VERTEX
  5
2C0
100
AcDbEntity
  8
0
  6
Continuous
100
AcDbVertex
100
AcDb2dVertex
 10
7922.152586
 20
608.248345
 30
0.0
  0
VERTEX
  5
2C1
100
AcDbEntity
  8
0
  6
Continuous
100
AcDbVertex
100
AcDb2dVertex
 10
7922.152586
 20
612.980378
 30
0.0
  0
VERTEX
  5
2C2
100
AcDbEntity
  8
0
  6
Continuous
100
AcDbVertex
100
AcDb2dVertex
 10
7913.052521
 20
613.344381
 30
0.0
  0
VERTEX
  5
2C3
100
AcDbEntity
  8
0
  6
Continuous
100
AcDbVertex
100
AcDb2dVertex
 10
7908.68449
 20
624.628462
 30
0.0
  0
VERTEX
  5
2C4
100
AcDbEntity
  8
0
  6
Continuous
100
AcDbVertex
100
AcDb2dVertex
 10
7891.576368
 20
629.360495
 30
0.0
  0
VERTEX
  5
2C5
100
AcDbEntity
  8
0
  6
Continuous
100
AcDbVertex
100
AcDb2dVertex
 10
7888.300345
 20
611.888371
 30
0.0
  0
VERTEX
  5
2C6
100
AcDbEntity
  8
0
  6
Continuous
100
AcDbVertex
100
AcDb2dVertex
 10
7864.276173
 20
622.080443
 30
0.0
  0
VERTEX
  5
2C7
100
AcDbEntity
  8
0
  6
Continuous
100
AcDbVertex
100
AcDb2dVertex
 10
7883.568311
 20
650.836649
 30
0.0
  0
VERTEX
  5
2C8
100
AcDbEntity
  8
0
  6
Continuous
100
AcDbVertex
100
AcDb2dVertex
 10
7897.40041
 20
653.020664
 30
0.0
  0
VERTEX
  5
2C9
100
AcDbEntity
  8
0
  6
Continuous
100
AcDbVertex
100
AcDb2dVertex
 10
7894.852391
 20
637.732555
 30
0.0
  0
VERTEX
  5
2CA
100
AcDbEntity
  8
0
  6
Continuous
100
AcDbVertex
100
AcDb2dVertex
 10
7905.408467
 20
639.552568
 30
0.0
  0
VERTEX
  5
2CB
100
AcDbEntity
  8
0
  6
Continuous
100
AcDbVertex
100
AcDb2dVertex
 10
7898.85642
 20
655.20468
 30
0.0
  0
VERTEX
  5
2CC
100
AcDbEntity
  8
0
  6
Continuous
100
AcDbVertex
100
AcDb2dVertex
 10
7884.660319
 20
653.020664
 30
0.0
  0
VERTEX
  5
2CD
100
AcDbEntity
  8
0
  6
Continuous
100
AcDbVertex
100
AcDb2dVertex
 10
7887.936342
 20
657.752698
 30
0.0
  0
VERTEX
  5
2CE
100
AcDbEntity
  8
0
  6
Continuous
100
AcDbVertex
100
AcDb2dVertex
 10
7874.832248
 20
657.752698
 30
0.0
  0
VERTEX
  5
2CF
100
AcDbEntity
  8
0
  6
Continuous
100
AcDbVertex
100
AcDb2dVertex
 10
7874.104243
 20
661.756727
 30
0.0
  0
VERTEX
  5
2D0
100
AcDbEntity
  8
0
  6
Continuous
100
AcDbVertex
100
AcDb2dVertex
 10
7897.036407
 20
665.396753
 30
0.0
  0
VERTEX
  5
2D1
100
AcDbEntity
  8
0
  6
Continuous
100
AcDbVertex
100
AcDb2dVertex
 10
7919.968571
 20
667.944771
 30
0.0
  0
VERTEX
  5
2D2
100
AcDbEntity
  8
0
  6
Continuous
100
AcDbVertex
100
AcDb2dVertex
 10
7948.360774
 20
614.800391
 30
0.0
  0
VERTEX
  5
2D3
100
AcDbEntity
  8
0
  6
Continuous
100
AcDbVertex
100
AcDb2dVertex
 10
7946.540761
 20
612.616376
 30
0.0
  0
VERTEX
  5
2D4
100
AcDbEntity
  8
0
  6
Continuous
100
AcDbVertex
100
AcDb2dVertex
 10
7934.528675
 20
612.616376
 30
0.0
  0
VERTEX
  5
2D5
100
AcDbEntity
  8
0
  6
Continuous
100
AcDbVertex
100
AcDb2dVertex
 10
7934.528675
 20
608.248345
 30
0.0
  0
SEQEND
  5
2D6
100
AcDbEntity
  8
0
  6
Continuous
  0
ENDSEC
  0
SECTION
  2
OBJECTS
  0
DICTIONARY
  5
19
100
AcDbDictionary
280
     0
281
     1
  3
ACAD_GROUP
350
1A
  3
ACAD_MLINESTYLE
350
1B
  3
ACAD_LAYOUT
350
1E
  3
ACAD_PLOTSETTINGS
350
22
  3
ACAD_PLOTSTYLENAME
350
1F
  3
ACAD_WIPEOUT_VARS
350
23
  0
DICTIONARY
  5
1A
102
{ACAD_REACTORS
330
19
102
}
100
AcDbDictionary
280
     0
281
     1
  0
DICTIONARY
  5
1B
102
{ACAD_REACTORS
330
19
102
}
100
AcDbDictionary
280
     0
281
     1
  3
Standard
350
1C
  0
MLINESTYLE
  5
1C
100
AcDbMlineStyle
  2
STANDARD
 70
     0
  3

 62
   256
 51
90.0
 52
90.0
 71
     2
 49
0.5
 62
   256
  6
ByLayer
 49
-0.5
 62
   256
  6
ByLayer
  0
ACDBDICTIONARYWDFLT
  5
1F
102
{ACAD_REACTORS
330
19
102
}
100
AcDbDictionary
281
     1
  3
Normal
350
1D
100
AcDbDictionaryWithDefault
340
1D
  0
ACDBPLACEHOLDER
  5
1D
102
{ACAD_REACTORS
330
1F
102
}
  0
LAYOUT
  5
20
102
{ACAD_REACTORS
330
1E
102
}
100
AcDbPlotSettings
  1

  2

  4

  6

 40
0.0
 41
0.0
 42
0.0
 43
0.0
 44
0.0
 45
0.0
 46
0.0
 47
0.0
 48
0.0
 49
0.0
140
0.0
141
0.0
142
1.0
143
1.0
 70
  1024
 72
     0
 73
     0
 74
     0
  7

 75
     0
147
1.0
148
0.0
149
0.0
100
AcDbLayout
  1
Model
 70
     0
 71
     0
 10
0.0
 20
0.0
 11
0.0
 21
0.0
 12
0.0
 22
0.0
 32
0.0
 14
0.0
 24
0.0
 34
0.0
 15
0.0
 25
0.0
 35
0.0
146
0.0
 13
0.0
 23
0.0
 33
0.0
 16
0.0
 26
0.0
 36
0.0
 17
0.0
 27
0.0
 37
0.0
 76
     0
330
A
331
0
345
0
346
0
  0
LAYOUT
  5
21
102
{ACAD_REACTORS
330
1E
102
}
100
AcDbPlotSettings
  1

  2

  4

  6

 40
0.0
 41
0.0
 42
0.0
 43
0.0
 44
0.0
 45
0.0
 46
0.0
 47
0.0
 48
0.0
 49
0.0
140
0.0
141
0.0
142
1.0
143
1.0
 70
     0
 72
     0
 73
     0
 74
     0
  7

 75
     0
147
1.0
148
0.0
149
0.0
100
AcDbLayout
  1
Layout1
 70
     0
 71
     0
 10
0.0
 20
0.0
 11
0.0
 21
0.0
 12
0.0
 22
0.0
 32
0.0
 14
0.0
 24
0.0
 34
0.0
 15
0.0
 25
0.0
 35
0.0
146
0.0
 13
0.0
 23
0.0
 33
0.0
 16
0.0
 26
0.0
 36
0.0
 17
0.0
 27
0.0
 37
0.0
 76
     0
330
B
331
0
345
0
346
0
  0
DICTIONARY
  5
1E
102
{ACAD_REACTORS
330
19
102
}
100
AcDbDictionary
280
     0
281
     1
  3
Layout1
350
21
  3
Model
350
20
  0
DICTIONARY
  5
22
102
{ACAD_REACTORS
330
19
102
}
100
AcDbDictionary
280
     0
281
     1
  0
WIPEOUTVARIABLES
  5
23
100
AcDbWipeoutVariables
 70
     1
  0
ENDSEC
  0
EOF
